<?xml version="1.0" encoding="utf-8"?>
<!-- Generator: Adobe Illustrator 27.5.0, SVG Export Plug-In . SVG Version: 6.00 Build 0)  -->
<svg version="1.1" id="_x3C_Layer_x3E_" xmlns="http://www.w3.org/2000/svg" xmlns:xlink="http://www.w3.org/1999/xlink" x="0px"
	 y="0px" viewBox="0 0 2760 1840" style="enable-background:new 0 0 2760 1840;" xml:space="preserve">
<rect style="fill:#FFFFFF;" width="2760" height="1840"/>
<g>
	<g>
		<path style="fill:#DAEBE8;" d="M2319.136,1698.378c-209.835,25.028-426.017,14.6-867.737-11.59
			c-248.035-14.706-746.747,9.659-995.679,11.59c-181.483,1.408-328.617-127.689-328.617-285.201V932.74V430.876
			c0-157.512,147.441-294.466,328.617-285.201c168.252,8.604,415.729,42.667,673.706,21.81
			c306.825-24.806,889.201-45.885,1189.71-21.81c180.722,14.479,328.617,127.689,328.617,285.201v982.301
			C2647.754,1570.689,2498.936,1676.932,2319.136,1698.378z"/>
	</g>
	<g>
		<ellipse style="fill:#B8D5DC;" cx="1385.13" cy="1397.052" rx="1038.156" ry="125.292"/>
	</g>
	<g style="opacity:0.6;">
		<path style="fill:#ACC9C5;" d="M1863.42,935.447c63.882-168.276,164.962-378.266,262.688-346.547
			c117.762,38.222-47.093,222.928-159.771,387.586C1925.916,1035.553,1822.708,1042.688,1863.42,935.447z"/>
	</g>
	<g>
		<g>
			<path style="fill:#CCD39C;" d="M1893.542,1122.127c0,0,307.522-494.219,465.695-403.165s-294.329,284.106-378.368,430.9
				L1893.542,1122.127z"/>
		</g>
		<g>
			<g>
				<path style="fill:#C2C68E;" d="M1942.255,1138.072c56.195-102.434,151.996-193.543,222.466-251.935
					c76.4-63.304,140.275-102.837,140.912-103.229l-2.448-3.974c-0.639,0.393-64.794,40.097-141.442,103.608
					c-70.783,58.652-167.03,150.205-223.579,253.284L1942.255,1138.072z"/>
			</g>
		</g>
	</g>
	<g>
		<g>
			<g>
				<path style="fill:#ACC9C5;" d="M2425.906,1169.001c-73.116,16.677-59.702,127.486-143.452,107.835
					c-70.833-16.661-76.851-23.111-101.077-2.489c-8.304,7.069-15.438,15.391-21.439,24.498
					c-7.192,10.913-21.136,27.029-42.548,31.032c-130.808,24.456-312.165-167.372-176.62-275.706
					c9.788-7.823,24.127-10.952,40.011-13.622c86.166-14.428,113.501,24.893,180.364-77.583
					c66.885-102.503,160.799,42.34,218.627,36.563c57.827-5.778,108.646-23.704,154.433,37.131
					C2579.999,1097.545,2499.028,1152.374,2425.906,1169.001z"/>
			</g>
		</g>
		<g style="opacity:0.5;">
			<g>
				<g>
					<path style="fill:#68A1BF;" d="M1984.096,1194.72l-2.797-4.061c1.789-1.234,183.501-123.614,563.491-136.697l0.17,4.931
						C2166.396,1071.929,1985.878,1193.494,1984.096,1194.72z"/>
				</g>
			</g>
			<g>
				<g>
					<path style="fill:#68A1BF;" d="M2218.959,1045.33c-50.632-44.566-59.85-80.288-60.218-81.786l4.79-1.179
						c0.087,0.353,9.35,35.834,58.69,79.263L2218.959,1045.33z"/>
				</g>
			</g>
			<g>
				<g>
					<path style="fill:#68A1BF;" d="M2228.229,1098.445c-14.357-24.669-13.419-60.457,2.713-103.493
						c12.08-32.23,28.603-57.582,28.769-57.833l4.123,2.703c-0.647,0.987-64.354,99.421-31.34,156.145L2228.229,1098.445z"/>
				</g>
			</g>
			<g>
				<g>
					<path style="fill:#68A1BF;" d="M2328.167,1088.764c-6.021-4.927-9.282-8.137-9.43-8.285l3.488-3.486
						c0.681,0.682,69.426,68.205,169.739,64.074l0.202,4.926C2411.335,1149.322,2350.601,1107.122,2328.167,1088.764z"/>
				</g>
			</g>
			<g>
				<g>
					<path style="fill:#68A1BF;" d="M2378.716,1202.271c-23.181-25.297-29.998-50.755-31.633-67.657
						c-1.78-18.398,1.933-30.683,2.091-31.198l4.715,1.456c-0.145,0.472-13.979,47.754,28.466,94.069L2378.716,1202.271z"/>
				</g>
			</g>
		</g>
	</g>
	<g>
		<path style="fill:#ACC9C5;" d="M1902.01,661.818c-1.881-19.24,5.948-25.784,16.296-26.795
			c10.348-1.012,19.296,3.891,21.177,23.132c3.427,35.049-13.654,53.82-13.654,53.82S1905.486,697.378,1902.01,661.818z"/>
	</g>
	<g style="opacity:0.6;">
		<path style="fill:#ACC9C5;" d="M2403.907,920.948c17.708-2.915,23.902,1.844,25.045,8.785c1.143,6.941-3.199,13.435-20.907,16.35
			c-32.259,5.31-49.919-4.691-49.919-4.691S2371.179,926.335,2403.907,920.948z"/>
	</g>
	<g style="opacity:0.6;">
		<path style="fill:#ACC9C5;" d="M2364.143,882.457c9.625-13.868,16.894-14.935,22.33-11.163c5.436,3.772,6.979,10.956-2.646,24.824
			c-17.533,25.263-35.849,30.643-35.849,30.643S2346.354,908.088,2364.143,882.457z"/>
	</g>
	<g>
		<g>
			<g>
				<path style="fill:#ACC9C5;" d="M987.71,576.021c-13.976,12.107-21.98,11.267-26.725,5.79c-4.745-5.478-4.435-13.52,9.541-25.627
					c25.459-22.055,46.356-22.795,46.356-22.795S1013.54,553.645,987.71,576.021z"/>
			</g>
			<g>
				<path style="fill:#ACC9C5;" d="M1008.73,693.985c-9.306,15.978-17.151,17.774-23.414,14.126
					c-6.263-3.648-8.571-11.357,0.735-27.335c16.953-29.106,36.486-36.569,36.486-36.569S1025.93,664.454,1008.73,693.985z"/>
			</g>
			<g>
				<g>
					<g>
						<path style="fill:#ACC9C5;" d="M1001.086,831.857l-4.572-1.213c-23.981-45.477-59.153-98.807-110.129-151.936
							c-0.893-0.926-1.793-1.864-2.697-2.783c-16.923-17.455-35.557-34.864-56.068-51.933c-4.422-3.7-8.94-7.376-13.543-11.035
							l2.175-2.739c4.529,3.599,8.966,7.203,13.325,10.837c40.949,34.078,74.477,69.432,101.842,103.851
							c0.851,1.045,1.688,2.106,2.516,3.165C962.769,764.747,984.633,800.244,1001.086,831.857z"/>
					</g>
				</g>
				<g>
					<g>
						<path style="fill:#ACC9C5;" d="M933.611,728.882l-3.242-1.318c47.92-117.714-16.345-237.977-16.999-239.178l3.072-1.675
							C917.104,487.925,982.168,609.604,933.611,728.882z"/>
					</g>
				</g>
				<g>
					<g>
						<path style="fill:#ACC9C5;" d="M871.455,682.639c-34.954,6.47-64.609-6.141-64.948-6.289l1.395-3.208
							c0.378,0.164,38.371,16.272,78.443,1.874l1.184,3.293C882.109,680.257,876.718,681.665,871.455,682.639z"/>
					</g>
				</g>
				<g>
					<g>
						<path style="fill:#ACC9C5;" d="M808.229,594.195c21.247,13.053,24.491,21.942,20.697,28.117
							c-3.794,6.175-13.189,7.298-34.436-5.755c-38.704-23.778-50.54-46.452-50.54-46.452S768.962,570.07,808.229,594.195z"/>
					</g>
				</g>
				<g>
					<g>
						<path style="fill:#ACC9C5;" d="M813.677,663.517c24.194,6.04,29.967,13.537,28.211,20.568
							c-1.755,7.032-10.375,10.935-34.568,4.896c-44.072-11.002-62.194-29.052-62.194-29.052S768.963,652.354,813.677,663.517z"/>
					</g>
				</g>
				<g>
					<g>
						<path style="fill:#ACC9C5;" d="M896.505,621.309c7.423,16.935,4.25,24.331-2.387,27.241
							c-6.638,2.91-14.227,0.231-21.65-16.704c-13.523-30.85-8.04-51.028-8.04-51.028S882.786,590.01,896.505,621.309z"/>
					</g>
				</g>
				<g>
					<g>
						<path style="fill:#ACC9C5;" d="M921.117,471.427c10.128,22.787,7.771,31.951,1.148,34.894
							c-6.623,2.944-15.004-1.448-25.131-24.235c-18.449-41.509-15.373-66.901-15.373-66.901S902.399,429.313,921.117,471.427z"/>
					</g>
				</g>
			</g>
		</g>
	</g>
	<g>
		<path style="fill:#ACC9C5;" d="M888.287,1015.919c0,0-126.858-380.003-228.678-341.707
			c-101.82,38.297,141.426,235.801,174.851,347.593L888.287,1015.919z"/>
	</g>
	<g>
		<g>
			<path style="fill:#92BCB5;" d="M919.685,1035.164c0,0-336.494-426.14-473.645-325.276S748.443,942.628,841.62,1069.96
				L919.685,1035.164z"/>
		</g>
		<g>
			<g>
				<path style="fill:#68A1BF;" d="M876.187,1055.014c-62.75-89.108-161.037-163.598-232.438-210.395
					c-77.409-50.733-140.734-80.733-141.365-81.031l1.856-3.938c0.633,0.298,64.236,30.428,141.896,81.327
					c71.719,47.005,170.465,121.86,233.61,211.529L876.187,1055.014z"/>
			</g>
		</g>
	</g>
	<g>
		<g>
			<g>
				<path style="fill:#CCD39C;" d="M899.75,1267.248c-20.773,48.093-114.947,60.936-156.563,38.2
					c-11.879-6.49-67.363-59.435-166.501-41.831c-71.115,12.591-79.455-50.041-109.641-95.382c-0.543-0.829-1.106-1.649-1.668-2.469
					c-11.648-16.785-26.603-30.892-49.335-37.421c-24.115-6.91-48.763-17.49-70.343-30.701c-1.792-1.087-3.565-2.202-5.319-3.346
					c-42.778-27.68-71.611-65.777-56.074-105.19c0.362-0.934,0.753-1.868,1.172-2.793c2.917-6.52,7.063-13.077,12.572-19.616
					c57.437-68.122,115.656-43.893,182.854-33.398c37.154,5.795,90.159-41.482,142.23-63.957c0.743-0.324,1.496-0.639,2.24-0.953
					c41.338-17.271,81.933-18.186,113.349,36.306c0,0.01,0.01,0.01,0.01,0.019c0.639,1.106,1.277,2.202,1.906,3.279
					C810.848,1027.997,1031.682,817.76,899.75,1267.248z"/>
			</g>
		</g>
		<g>
			<g>
				<g>
					<path style="fill:#C2C68E;" d="M930.623,1186.963l3.531-4.564c-2.01-1.558-206.425-156.306-649.591-196.165l-0.518,5.751
						C725.549,1031.695,928.62,1185.415,930.623,1186.963z"/>
				</g>
			</g>
			<g>
				<g>
					<path style="fill:#C2C68E;" d="M535.433,1040.906c7.354-5.368,11.372-8.908,11.554-9.071l-3.85-4.298
						c-0.84,0.753-85.533,75.207-202.48,63.894l-0.554,5.742C434.336,1106.29,508.032,1060.907,535.433,1040.906z"/>
				</g>
			</g>
			<g>
				<g>
					<path style="fill:#C2C68E;" d="M469.027,1170.269c28.723-28.06,38.333-57.367,41.338-77.011
						c3.27-21.383-0.275-35.978-0.426-36.59l-5.603,1.396c0.139,0.561,13.246,56.703-39.345,108.078L469.027,1170.269z"/>
				</g>
			</g>
		</g>
	</g>
	<g>
		<path style="fill:#ACC9C5;" d="M392.392,891.18c-17.055-7.146-19.857-14.69-17.056-21.374c2.801-6.684,10.144-9.978,27.198-2.832
			c31.067,13.016,41.011,31.411,41.011,31.411S423.911,904.386,392.392,891.18z"/>
	</g>
	<g style="opacity:0.4;">
		<path style="fill:#FFFFFF;" d="M1563.181,304.882c0,0,23.27-44.772,82.151-39.162c58.881,5.61,51.871,50.489,79.91,46.281
			c28.039-4.207,67.293,0,75.704,28.049c8.412,28.049,46.264,12.622,47.666,36.464c1.402,23.842-43.46,40.672-95.331,19.634
			c-51.871-21.037-77.106,16.343-150.006,9.574c-72.9-6.769-81.932-15.184-125.082-10.976c-43.15,4.208-42.125-25.348-22.498-44.984
			C1475.323,330.127,1554.769,331.997,1563.181,304.882z"/>
	</g>
	<g style="opacity:0.4;">
		<path style="fill:#FFFFFF;" d="M549.886,439.188c0,0,16.486-31.72,58.202-27.745c41.716,3.974,36.75,35.77,56.615,32.789
			c19.865-2.981,47.675,0,53.635,19.872c5.959,19.872,32.777,8.943,33.77,25.834c0.993,16.892-30.79,28.815-67.54,13.911
			c-36.75-14.904-54.628,11.579-106.276,6.783c-51.648-4.796-58.047-10.757-88.618-7.777c-30.571,2.981-29.845-17.959-15.939-31.87
			C487.64,457.074,543.927,458.399,549.886,439.188z"/>
	</g>
	<g style="opacity:0.6;">
		<path style="fill:#FFFFFF;" d="M1778.555,487.791c0,0,14.513-27.924,51.238-24.425c36.724,3.499,32.352,31.49,49.84,28.866
			c17.488-2.624,41.971,0,47.217,17.495c5.246,17.494,28.855,7.872,29.729,22.743c0.874,14.87-27.106,25.367-59.459,12.246
			s-48.092,10.193-93.56,5.971c-45.468-4.222-51.102-9.47-78.014-6.846c-26.913,2.624-26.274-15.81-14.032-28.057
			C1723.757,503.537,1773.308,504.703,1778.555,487.791z"/>
	</g>
	<g style="opacity:0.6;">
		<path style="fill:#FFFFFF;" d="M1005.662,376.193c0,0,12.111-23.302,42.756-20.382s26.997,26.277,41.59,24.088
			c14.593-2.19,35.023,0,39.401,14.599c4.378,14.598,24.078,6.569,24.808,18.978c0.73,12.409-22.619,21.168-49.616,10.219
			c-26.997-10.949-40.131,8.506-78.073,4.983c-37.942-3.523-42.642-7.903-65.1-5.713c-22.458,2.19-21.925-13.193-11.709-23.412
			C959.935,389.333,1001.284,390.306,1005.662,376.193z"/>
	</g>
	<g>
		<g>
			<path style="fill:#020202;" d="M950.149,1315.272H827.609c-15.482,0-28.078-11.51-28.078-25.658V782.951
				c0-14.148,12.596-25.658,28.078-25.658h291.94c15.482,0,28.078,11.51,28.078,25.658v72.103c0,14.148-12.596,25.658-28.078,25.658
				h-114.389c-14.85,0-26.932,10.996-26.932,24.512v44.837c0,13.515,12.082,24.511,26.932,24.511h101.707
				c15.482,0,28.078,11.51,28.078,25.659v72.93c0,14.148-12.596,25.658-28.078,25.658h-101.707
				c-14.85,0-26.932,10.996-26.932,24.512v166.283C978.227,1303.762,965.632,1315.272,950.149,1315.272z M827.609,758.44
				c-14.85,0-26.932,10.996-26.932,24.512v506.662c0,13.516,12.081,24.512,26.932,24.512h122.541
				c14.85,0,26.932-10.996,26.932-24.512v-166.283c0-14.149,12.596-25.659,28.078-25.659h101.707
				c14.85,0,26.932-10.996,26.932-24.511v-72.93c0-13.516-12.081-24.512-26.932-24.512h-101.707
				c-15.482,0-28.078-11.51-28.078-25.658v-44.837c0-14.148,12.596-25.658,28.078-25.658h114.389
				c14.85,0,26.932-10.996,26.932-24.512v-72.103c0-13.516-12.081-24.512-26.932-24.512H827.609z"/>
		</g>
		<g>
			<path style="fill:#020202;" d="M1565.252,1315.272h-123.495c-16.993,0-31.128-11.644-32.879-27.085l-7.452-65.693
				c-0.198-1.742-1.817-3.056-3.764-3.056h-55.487c-1.949,0-3.605,1.367-3.77,3.112l-6.374,67.429
				c-1.363,14.419-14.336,25.292-30.175,25.292h-113.968c-10.442,0-20.134-4.305-26.59-11.812
				c-5.714-6.644-8.163-14.918-6.895-23.297l75.28-497.56l0.567,0.086l-0.567-0.086c2.183-14.429,15.853-25.311,31.798-25.311
				h218.557c17.528,0,32.612,11.952,35.087,27.802l78.186,500.616c1.101,7.046-0.932,14.009-5.725,19.609
				C1582.173,1311.645,1574.032,1315.272,1565.252,1315.272z M1342.175,1218.292h55.487c2.532,0,4.641,1.751,4.904,4.073
				l7.452,65.693c1.686,14.861,15.33,26.068,31.74,26.068h123.495c8.444,0,16.267-3.482,21.462-9.55
				c4.571-5.341,6.512-11.977,5.464-18.688l-78.186-500.615c-2.389-15.297-16.986-26.833-33.955-26.833h-218.557
				c-15.383,0-28.566,10.462-30.665,24.336l-75.28,497.559c-1.217,8.045,1.138,15.991,6.63,22.378
				c6.238,7.253,15.613,11.413,25.721,11.413h113.968c15.245,0,27.727-10.426,29.033-24.253l6.374-67.43
				C1337.487,1220.076,1339.599,1218.292,1342.175,1218.292z M1382.506,1086.425h-27.054c-1.429,0-2.786-0.571-3.724-1.565
				c-0.844-0.895-1.27-2.04-1.199-3.226c1.58-26.702,4.806-67.946,7.926-107.834c2.614-33.423,5.317-67.984,6.992-93.275
				c0.158-2.391,2.319-4.263,4.92-4.263c2.571,0,4.73,1.851,4.917,4.214c2.909,36.826,7.394,116.698,10.362,169.552
				c0.676,12.033,1.282,22.82,1.785,31.618c0.068,1.183-0.359,2.327-1.201,3.219
				C1385.291,1085.856,1383.934,1086.425,1382.506,1086.425z M1370.366,877.408c-1.999,0-3.658,1.402-3.776,3.192
				c-1.675,25.298-4.378,59.863-6.992,93.289c-3.119,39.882-6.344,81.122-7.924,107.812l0,0c-0.051,0.867,0.265,1.709,0.889,2.372
				c0.722,0.766,1.775,1.205,2.889,1.205h27.054c1.115,0,2.168-0.439,2.888-1.201c0.624-0.661,0.94-1.501,0.89-2.366
				c-0.503-8.797-1.109-19.586-1.785-31.62c-2.968-52.848-7.453-132.712-10.36-169.526
				C1374,878.795,1372.342,877.408,1370.366,877.408z"/>
		</g>
		<g>
			<path style="fill:#020202;" d="M2015.851,1375.43c-7.028,0-14.142-1.685-20.627-5.195l-78.479-42.469
				c-7.765-4.202-16.974-5.791-25.918-4.482c-16.099,2.359-33.803,3.555-52.62,3.555c-77.771,0-132.078-24.404-166.024-74.607
				c-16.602-24.553-28.483-55.023-36.321-93.149c-7.476-36.358-11.109-78.958-11.109-130.235c0-48.275,3.667-88.45,11.21-122.82
				c7.97-36.317,20.08-65.399,37.024-88.909c35.022-48.595,91.14-72.218,171.562-72.218c79.693,0,135.478,23.623,170.542,72.218
				c17.192,23.826,29.51,53.364,37.66,90.302c7.8,35.353,11.592,76.693,11.592,126.383c0,76.972-8.698,135.606-26.592,179.256
				c-7.616,18.582,0.432,39.427,19.137,49.562l14.922,8.084c8.812,4.774,14.936,12.792,16.802,21.997
				c1.797,8.86-0.418,17.75-6.235,25.031l-33.979,42.519C2040.514,1370.118,2028.321,1375.43,2015.851,1375.43z M1896.977,1321.69
				c7.118,0,14.155,1.736,20.314,5.068l78.479,42.469c17.507,9.473,39.747,5.308,51.731-9.688l33.979-42.519
				c5.602-7.012,7.736-15.566,6.007-24.087c-1.799-8.872-7.712-16.606-16.224-21.218l-14.922-8.084
				c-19.23-10.42-27.495-31.87-19.651-51.005c17.836-43.509,26.506-102.001,26.506-178.821c0-49.605-3.783-90.865-11.565-126.136
				c-8.116-36.782-20.372-66.182-37.47-89.878c-34.833-48.275-90.314-71.742-169.612-71.742
				c-80.026,0-135.841,23.467-170.632,71.742c-16.849,23.38-28.898,52.323-36.834,88.484
				c-7.524,34.288-11.183,74.383-11.183,122.574c0,51.197,3.626,93.722,11.086,130.004c7.807,37.976,19.632,68.311,36.149,92.738
				c33.716,49.864,87.712,74.103,165.073,74.103c18.761,0,36.409-1.192,52.453-3.542
				C1892.759,1321.842,1894.872,1321.69,1896.977,1321.69z M1844.548,1207.87c-24.639,0-27.751-19.892-27.751-177.37
				c0-153.707,6.78-166.63,27.751-166.63c25.157,0,27.751,15.573,27.751,166.63
				C1872.299,1189.636,1869.446,1207.87,1844.548,1207.87z M1844.548,865.016c-20.105,0-26.604,12.835-26.604,165.484
				c0,74.563,0.777,122.649,4.749,147.792c3.797,24.034,10.339,28.432,21.855,28.432c23.87,0,26.604-18.116,26.604-176.224
				C1871.152,880.482,1868.666,865.016,1844.548,865.016z"/>
		</g>
	</g>
	<g>
		<g>
			<path style="fill:#EF8062;" d="M809.744,1347.799h122.541c15.19,0,27.505-12.314,27.505-27.505v-182.322
				c0-15.19,12.314-27.505,27.505-27.505h101.707c15.19,0,27.505-12.314,27.505-27.505v-79.964c0-15.19-12.314-27.505-27.505-27.505
				H987.294c-15.19,0-27.505-12.314-27.505-27.505v-49.162c0-15.19,12.314-27.505,27.505-27.505h114.39
				c15.19,0,27.505-12.314,27.505-27.505V764.76c0-15.19-12.314-27.505-27.505-27.505h-291.94c-15.19,0-27.505,12.314-27.505,27.505
				v555.534C782.239,1335.484,794.553,1347.799,809.744,1347.799z"/>
		</g>
		<g>
			<path style="fill:#EF8062;" d="M1212.384,764.473l-75.28,545.553c-2.756,19.969,12.76,37.772,32.918,37.772h113.968
				c15.421,0,28.28-11.797,29.604-27.162l6.375-73.934c0.194-2.253,2.079-3.982,4.341-3.982h55.487c2.233,0,4.104,1.688,4.334,3.908
				l7.452,72.03c1.713,16.557,15.665,29.14,32.31,29.14h123.494c16.895,0,29.875-14.96,27.493-31.686l-78.186-548.904
				c-2.448-17.185-17.163-29.953-34.521-29.953h-218.557C1227.869,737.255,1214.537,748.874,1212.384,764.473z M1333.236,1092.289
				c2.911-53.921,11.253-159.835,14.917-220.504c0.139-2.3,2.044-4.087,4.348-4.087l0,0c2.285,0,4.181,1.762,4.345,4.041
				c3.557,49.388,9.388,167.725,12.146,220.561c0.13,2.492-1.856,4.577-4.351,4.577h-27.054
				C1335.089,1096.877,1333.101,1094.783,1333.236,1092.289z"/>
		</g>
		<g>
			<path style="fill:#EF8062;" d="M2053.671,1300.116l-14.922-8.865c-18.959-11.263-27.117-34.477-19.395-55.133
				c18.63-49.832,26.549-115.03,26.549-196.309c0-211.061-57.976-316.142-219.221-316.142
				c-163.963,0-219.222,106.892-219.222,310.707c0,217.403,55.26,326.107,212.881,326.107c18.891,0,36.373-1.295,52.536-3.892
				c9.076-1.458,18.37,0.293,26.275,4.984l78.479,46.565c17.648,10.471,40.365,5.801,52.451-10.782l33.979-46.622
				C2076.189,1334.096,2071.373,1310.632,2053.671,1300.116z M1826.683,1230.037c-23.554,0-27.178-19.931-27.178-193.851
				c0-166.673,6.341-182.074,27.178-182.074c24.46,0,27.178,16.307,27.178,182.074
				C1853.861,1209.201,1851.143,1230.037,1826.683,1230.037z"/>
		</g>
	</g>
	<g>
		<g>
			<g>
				<path style="fill:#331832;" d="M644.755,1019.573c-6.398-1.468-13.141-9.614-13.466-20.875
					c-0.257-8.91,4.101-15.453,11.659-17.501c17.795-4.823,21.421-12.428,21.456-12.505l1.007,0.449
					c-0.147,0.33-3.794,8.138-22.174,13.12c-3.377,0.915-11.193,4.346-10.845,16.406c0.241,8.316,5.157,18.263,12.774,19.868
					l-0.227,1.078C644.877,1019.6,644.816,1019.587,644.755,1019.573z"/>
			</g>
		</g>
		<g>
			<path style="fill:#DB6B55;" d="M697.685,939.907c0,0-9.098-7.72-17.109-6.555c-8.011,1.165-12.672,7.137-12.235,11.361
				C668.777,948.938,697.685,939.907,697.685,939.907z"/>
		</g>
		<g>
			<path style="fill:#EF8062;" d="M719.841,954.108c-1.29-13.537-13.599-17.848-35.7-13.863
				c-18.715,3.375-34.145,6.861-32.855,20.398c1.29,13.537,17.683,23.049,36.614,21.244
				C706.831,980.083,721.132,967.646,719.841,954.108z"/>
		</g>
		<g>
			<path style="fill:#331832;" d="M691.156,949.529c0,0,9.702-8.339,16.377,1.251c10.062,14.457-6.668,25.886,0.228,31.821
				c6.639,5.714,14.066,1.901,11.683,9.752c-2.383,7.851,14.551,4.697,7.676,19.99c-6.875,15.293-71.747,9.784-80.629,4.282
				c-6.384-3.955-18.257-19.93,0.972-35.04c7.211-5.666,16.008-12.259,19.79-17.063
				C673.554,956.516,674.213,951.503,691.156,949.529z"/>
		</g>
		<g>
			<path style="fill:#FFB27D;" d="M729.821,1018.366c0.975,0.573,40.33,34.986,40.409,62.476
				c0.036,12.591-10.534,27.787-21.226,24.818c-18.019-5.004-38.742-26.676-38.742-26.676L729.821,1018.366z"/>
		</g>
		<g>
			<path style="fill:#EF8062;" d="M646.163,1026.749c0,0,9.498-26.723,43.334-25.508c33.835,1.216,44.464,44.566,62.115,139.188
				c0,0-71.521-2.738-110.443,6.94c0,0,3.966-28.358,2.051-47.077C640.448,1073.198,637.374,1049.784,646.163,1026.749z"/>
		</g>
		<g>
			<path style="fill:#EF8062;" d="M622.401,1025.141l23.971,15.343c0,0,61.615,6.164,77.972,3.197s18.902-14.994,18.902-14.994
				s-15.56-21.343-45.171-26.644c-2.782-0.502-5.585-0.584-8.577-0.799c-5.022-0.357-10.044-0.203-14.968,0.328
				C645.277,1004.729,622.401,1025.141,622.401,1025.141z"/>
		</g>
		<g>
			<path style="fill:#331832;" d="M622.06,1025.67c-0.831,2.413,5.438,6.931,14.002,10.09s16.182,3.764,17.013,1.351
				c0.831-2.413-5.438-6.931-14.002-10.09C630.508,1023.862,622.891,1023.257,622.06,1025.67z"/>
		</g>
		<g>
			<path style="fill:#FFB27D;" d="M676.445,1004.58c-1.452-2.178,1.921-4.397,2.81-7.553l2.787-9.89l0.808-2.87l4.755-16.878
				l1.004,16.704l0.601,10.026l0.169,2.824c0.105,1.754,0.65,3.046,1.917,3.72c1.311,0.697,2.339,1.844,2.679,3.288
				c0.429,1.821,0.293,4.067-2.287,5.282C686.008,1011.907,678.771,1008.069,676.445,1004.58z"/>
		</g>
		<g>
			<path style="fill:#E9845C;" d="M681.988,986.865c0.015,0.091,0.033,0.182,0.054,0.272c1.102,5.281,7.138,7.016,7.138,7.016
				l0.031-0.034l-0.601-10.026c-1.829-0.408-4.4-0.735-5.759,0.174C682.14,984.741,681.762,985.553,681.988,986.865z"/>
		</g>
		<g>
			
				<ellipse transform="matrix(0.9913 -0.1316 0.1316 0.9913 -121.6189 99.0371)" style="fill:#FFB27D;" cx="688.707" cy="969.935" rx="15.681" ry="19.347"/>
		</g>
		<g>
			<g>
				<path style="fill:#080435;" d="M690.236,969.921c0.1-0.042,0.179-0.129,0.208-0.241c0.048-0.191-0.066-0.384-0.257-0.433
					c-0.112-0.028-2.655-0.937-4.442,1.628c-0.113,0.162-0.081,0.383,0.079,0.498c0.159,0.116,0.351,0.052,0.498-0.079
					c1.479-1.307,3.595-1.379,3.688-1.356C690.088,969.957,690.167,969.95,690.236,969.921z"/>
			</g>
		</g>
		<g>
			<path style="fill:#080435;" d="M687.953,974.178c0.085,0.847,0.652,1.484,1.267,1.422c0.615-0.062,1.044-0.798,0.959-1.645
				c-0.085-0.847-0.652-1.483-1.267-1.422C688.298,972.594,687.868,973.331,687.953,974.178z"/>
		</g>
		<g>
			<g>
				<path style="fill:#080435;" d="M703.101,970.089c0.108-0.001,0.215-0.05,0.284-0.144c0.117-0.158,0.085-0.381-0.073-0.499
					c-0.093-0.069-2.098-1.877-4.727-0.187c-0.166,0.107-0.22,0.323-0.117,0.491c0.103,0.168,0.304,0.181,0.491,0.117
					c1.865-0.645,3.849,0.094,3.927,0.151C702.951,970.067,703.027,970.089,703.101,970.089z"/>
			</g>
		</g>
		<g>
			<path style="fill:#080435;" d="M699.37,973.156c-0.244,0.815,0.038,1.62,0.63,1.797c0.592,0.177,1.269-0.341,1.513-1.156
				c0.244-0.815-0.038-1.62-0.63-1.797C700.291,971.823,699.614,972.34,699.37,973.156z"/>
		</g>
		<g>
			<path style="fill:#FFB27D;" d="M675.625,974.615c1.984,1.448,4.469,1.293,5.55-0.345c1.081-1.638,0.35-4.14-1.634-5.587
				c-1.984-1.448-4.469-1.293-5.55,0.345C672.91,970.666,673.641,973.167,675.625,974.615z"/>
		</g>
		<g>
			<g>
				<path style="fill:#331832;" d="M692.819,957.224c0,0,7.035-3.027,8.739,4.167c1.428,6.028,2.882,8.24,4.816,7.325
					c1.933-0.915-4.16-16.203-4.16-16.203l-11.059-2.985l-2.862,0.49L692.819,957.224z"/>
			</g>
		</g>
		<g>
			<g>
				<path style="fill:#331832;" d="M692.819,957.224c0,0-6.064-4.159-10.667,1.589c-4.603,5.748-3.073,14.548-9.274,15.995
					c-6.201,1.446-10.766-19.043-2.575-23.555c8.192-4.512,13.28-5.73,15.849-3.587
					C688.722,949.807,692.819,957.224,692.819,957.224z"/>
			</g>
		</g>
		<g>
			<path style="fill:#FFFFFF;" d="M666.085,975.189l-0.073-0.359c6.047-1.221,7.218-4.697,8.574-8.722
				c0.945-2.805,2.016-5.984,4.947-8.743c3.685-3.468,7.079-3.756,9.275-3.388c2.385,0.4,3.873,1.607,3.936,1.659l-0.234,0.284
				c-0.058-0.048-5.903-4.71-12.726,1.713c-2.864,2.695-3.874,5.693-4.85,8.592C673.542,970.357,672.34,973.927,666.085,975.189z"/>
		</g>
		<g>
			<g>
				<path style="fill:#FFFFFF;" d="M702.304,982.444c-0.701,0-1.396-0.158-2.067-0.475c-3.543-1.671-5.342-7.398-4.009-12.767
					c0.79-3.184,2.565-5.703,4.747-6.739c1.411-0.672,2.881-0.685,4.249-0.038c3.543,1.671,5.341,7.398,4.009,12.767
					c-0.79,3.184-2.565,5.703-4.747,6.739C703.766,982.273,703.032,982.444,702.304,982.444z M703.157,962.623
					c-0.632,0-1.269,0.148-1.894,0.446c-2.003,0.951-3.641,3.305-4.384,6.295c-1.26,5.074,0.375,10.457,3.644,12
					c1.181,0.556,2.451,0.544,3.676-0.038c2.003-0.951,3.641-3.304,4.384-6.295c1.259-5.074-0.376-10.458-3.644-12
					C704.36,962.758,703.761,962.623,703.157,962.623z"/>
			</g>
			<g style="opacity:0.3;">
				<path style="fill:#FFFFFF;" d="M677.922,969.527c-0.792,5.173,1.707,10.469,5.583,11.827c3.875,1.359,7.659-1.733,8.451-6.906
					c0.792-5.173-1.707-10.469-5.582-11.828C682.498,961.262,678.714,964.354,677.922,969.527z"/>
			</g>
			<g style="opacity:0.3;">
				<path style="fill:#FFFFFF;" d="M696.104,969.642c-0.793,5.197,1.383,10.597,4.861,12.062c3.478,1.465,6.941-1.56,7.734-6.757
					c0.793-5.197-1.383-10.597-4.861-12.062C700.36,961.42,696.897,964.445,696.104,969.642z"/>
			</g>
			<g>
				<path style="fill:#FFFFFF;" d="M685.713,981.806c-0.684,0-1.372-0.115-2.048-0.346c-4.268-1.46-7.028-7.158-6.152-12.699
					c0.488-3.087,2.012-5.607,4.18-6.914c1.619-0.976,3.494-1.177,5.277-0.568c4.268,1.46,7.028,7.157,6.152,12.699
					c-0.488,3.088-2.012,5.608-4.181,6.914C687.936,981.498,686.832,981.806,685.713,981.806z M684.909,961.598
					c-0.991,0-1.961,0.276-2.87,0.823c-1.999,1.205-3.407,3.553-3.864,6.445c-0.827,5.235,1.732,10.602,5.706,11.961
					c1.615,0.554,3.246,0.376,4.715-0.508c1.999-1.204,3.407-3.553,3.865-6.445c0.827-5.236-1.733-10.602-5.707-11.961
					C686.138,961.702,685.519,961.598,684.909,961.598z"/>
			</g>
			<g>
				<path style="fill:#FFFFFF;" d="M696.96,972.347c-0.128,0-0.257-0.037-0.37-0.115l0,0c-0.075-0.052-1.875-1.243-4.726-0.43
					c-0.348,0.104-0.708-0.102-0.806-0.447c-0.099-0.346,0.101-0.706,0.447-0.805c3.476-0.996,5.734,0.546,5.828,0.612
					c0.295,0.207,0.367,0.613,0.161,0.908C697.368,972.25,697.165,972.347,696.96,972.347z"/>
			</g>
		</g>
		<g>
			<g>
				<path style="fill:#020202;" d="M692.439,984.765c-1.332,0-2.795-0.363-4.242-1.411c-0.105-0.076-0.128-0.223-0.052-0.328
					c0.076-0.106,0.224-0.128,0.328-0.053c4.395,3.184,8.838-0.278,9.026-0.427c0.101-0.081,0.25-0.066,0.33,0.037
					c0.081,0.101,0.065,0.249-0.037,0.33C697.759,982.94,695.426,984.765,692.439,984.765z"/>
			</g>
			<g>
				<path style="fill:#020202;" d="M688.001,984.322c-0.119,0-0.22-0.09-0.233-0.21c-0.063-0.61,0.19-1.313,0.753-2.09
					c0.068-0.11,0.227-0.163,0.337-0.095c0.11,0.068,0.158,0.194,0.089,0.305l-0.046,0.066c-0.614,0.846-0.701,1.428-0.666,1.766
					c0.013,0.129-0.08,0.244-0.209,0.258C688.017,984.322,688.009,984.322,688.001,984.322z"/>
			</g>
		</g>
		<g>
			<path style="fill:#331832;" d="M641.17,1147.369c-1.787,8.656,25.309,13.097,55.807,11.18
				c30.498-1.917,54.859-14.565,54.636-18.12s-25.128-4.883-55.626-2.967C665.488,1139.379,641.89,1143.881,641.17,1147.369z"/>
		</g>
		<g>
			<path style="fill:#FFB27D;" d="M738.803,1142.532c1.892,0.089,3.904,4.052,4.057,5.94c0.717,8.838,6.615,32.979-3.278,92.438
				c-8.982,53.985-30.355,115.451-35.558,141.531c-1.861,9.329,1.063,9.084-8.236,9.457l-4.997,0.2
				c-4.729,0.139-6.665,0.61-5.93-9.658l1.073-185.286c0,0-0.428-56.754,14.72-57.05
				C709.767,1139.926,729.767,1142.108,738.803,1142.532z"/>
		</g>
		<g>
			<path style="fill:#FFB27D;" d="M715.424,1144.771l-83.766,237.667c-2.935,9.429-0.058,13.708-9.729,13.873l-4.215,0.072
				c-9.952,0.17-7.034-22.553-5.22-32.566l29.582-211.781c0.557-2.516,11.825-5.217,14.251-5.917
				C669.48,1142.327,716.715,1135.454,715.424,1144.771z"/>
		</g>
		<g>
			<g>
				<path style="fill:#FFB27D;" d="M680.854,1109.163l0.287-17.517c0.039-2.393-1.803-4.4-4.19-4.571
					c-12.143-0.869-20.643-4.635-25.299-11.22c-6.466-9.144-5.784-23.347-3.982-33.197c0.922-5.041-0.742-8.412-6.83-11.643
					c0,0-5.239-2.882-11.697-3.982c-2.588-0.441-5.156,0.599-5.823,3.137c-1.045,3.973-2.397,10.153-3.042,17.426
					c-1.532,17.273,1.799,32.298,9.635,43.451c9.617,13.688,25.119,21.262,46.123,22.549
					C678.612,1113.754,680.811,1111.746,680.854,1109.163z"/>
			</g>
		</g>
		<g>
			<path style="fill:#E9845C;" d="M636.205,1086.179c-1.628,0-3.52-0.98-4.92-2.719l0,0c-2.061-2.56-2.288-5.809-0.506-7.245
				c0.881-0.708,2.098-0.875,3.434-0.47c1.294,0.393,2.55,1.285,3.536,2.509c2.062,2.56,2.288,5.81,0.506,7.246
				C637.683,1085.96,636.974,1086.179,636.205,1086.179z M631.739,1083.095c1.86,2.308,4.618,3.185,6.151,1.951
				c1.532-1.234,1.265-4.117-0.594-6.427c-0.913-1.134-2.068-1.957-3.252-2.317c-1.145-0.348-2.173-0.218-2.899,0.367
				C629.612,1077.903,629.879,1080.785,631.739,1083.095L631.739,1083.095z"/>
		</g>
		<g>
			<path style="fill:#EF8062;" d="M710.253,956.425c0,0-3.123-3.26-9.317-4.256c-10.935-1.759-26.732-0.151-34.667,13.518
				l-3.486-5.993l7.574-10.886l13.568-4.482l13.035-3l12.046,3.593L710.253,956.425z"/>
		</g>
		<g>
			<g>
				<path style="fill:#060423;" d="M745.814,1058.2l-11.791,67.876c-0.772,4.442-5.058,7.371-9.477,6.476l-31.592-6.399
					c-4.248-0.86-7.04-4.946-6.298-9.217l11.62-66.891c0.755-4.346,4.884-7.263,9.233-6.522l31.763,5.414
					C743.64,1049.683,746.572,1053.834,745.814,1058.2z"/>
			</g>
			<g>
				<path style="fill:#92A5E6;" d="M705.427,1053.939c0-1.163,0.943-2.106,2.106-2.106c1.163,0,2.106,0.943,2.106,2.106
					c0,1.163-0.943,2.106-2.106,2.106C706.37,1056.044,705.427,1055.102,705.427,1053.939z"/>
			</g>
		</g>
		<g>
			<g>
				<g>
					<path style="fill:#FFB27D;" d="M676.95,1087.075c0,0,16.948-7.124,24.843-6.14s17.237,8.21,12.213,8.639
						c-5.024,0.429-11.594-0.795-11.594-0.795s13.915,3.276,11.739,6.199c-2.176,2.922-14.25-0.044-14.25-0.044
						s16.247,5.218,13.298,7.313c-2.949,2.095-15.263-1.956-15.263-1.956s14.922,5.459,11.44,7.812
						c-3.483,2.353-12.302-4.591-14.478-1.669c-2.176,2.922-14.512,11.834-23.374,6.779L676.95,1087.075z"/>
				</g>
			</g>
			<g>
				<path style="fill:#E9845C;" d="M702.412,1089.073c-0.036,0-0.073-0.007-0.109-0.021c-0.038-0.015-3.698-1.454-5.608-0.159
					c-0.134,0.092-0.316,0.056-0.407-0.079c-0.091-0.134-0.056-0.317,0.079-0.408c2.168-1.465,5.992,0.035,6.154,0.101
					c0.15,0.059,0.224,0.231,0.163,0.381C702.639,1089.003,702.529,1089.073,702.412,1089.073z"/>
			</g>
			<g>
				<path style="fill:#E9845C;" d="M699.901,1095.229c-0.038,0-0.076-0.007-0.113-0.023c-0.036-0.014-3.614-1.488-6.795-0.154
					c-0.149,0.06-0.321-0.009-0.384-0.158c-0.062-0.149,0.008-0.322,0.158-0.385c3.411-1.428,7.093,0.089,7.249,0.155
					c0.149,0.063,0.219,0.234,0.156,0.385C700.125,1095.161,700.016,1095.229,699.901,1095.229z"/>
			</g>
			<g>
				<path style="fill:#E9845C;" d="M697.936,1100.585c-0.036,0-0.074-0.007-0.109-0.022c-0.044-0.017-4.39-1.731-6.301-0.189
					c-0.125,0.102-0.31,0.083-0.413-0.044c-0.102-0.126-0.082-0.311,0.044-0.412c2.178-1.759,6.697,0.022,6.888,0.101
					c0.151,0.06,0.224,0.231,0.164,0.382C698.163,1100.515,698.053,1100.585,697.936,1100.585z"/>
			</g>
		</g>
		<g>
			<g>
				<path style="fill:#FFB27D;" d="M745.242,1097.067c0,0,5.64,8.209-0.703,7.521c-8.081-0.876-23.653-11.037-18.525-10.558
					c4.547,0.425,10.858,2.702,10.858,2.702s-15.972-6.031-13.653-9.197c2.319-3.166,15.986,2.222,15.986,2.222
					s-15.026-7.461-11.945-9.693c3.081-2.232,15.52,2.576,15.52,2.576s-15.055-6.433-11.42-8.936
					c3.634-2.503,10.043,1.479,13.528,2.861c3.293,1.306,4.304,5.086,2.885,8.44c0,0,0.377,4.21-1.06,6.152
					c-0.551,0.745-0.099,1.88-0.246,2.532C746.185,1094.936,745.242,1097.067,745.242,1097.067z"/>
			</g>
		</g>
		<g>
			<path style="fill:#E9845C;" d="M745.614,1104.835c-0.132,0-0.251-0.089-0.285-0.222c-0.039-0.157,0.056-0.317,0.213-0.357
				c0.51-0.128,0.864-0.415,1.083-0.877c1.017-2.146-1.254-7.022-1.277-7.072c-0.058-0.122-0.024-0.268,0.081-0.353
				c1.485-1.201,0.998-4.719,0.993-4.755c-0.008-0.055,0-0.109,0.022-0.16c0.008-0.017,0.743-1.72,1.068-4.143
				c0.138-1.03,0.155-1.534,0.174-2.066c0.026-0.747,0.056-1.592,0.422-4.033c0.576-3.833-5.311-4.865-5.371-4.875
				c-0.16-0.026-0.268-0.178-0.241-0.338c0.027-0.16,0.176-0.265,0.338-0.241c0.065,0.011,6.515,1.143,5.854,5.542
				c-0.361,2.407-0.389,3.199-0.416,3.966c-0.019,0.548-0.037,1.065-0.179,2.123c-0.3,2.245-0.928,3.857-1.08,4.224
				c0.07,0.561,0.381,3.66-1.043,5.059c0.438,0.983,2.206,5.22,1.186,7.373c-0.295,0.622-0.79,1.024-1.471,1.195
				C745.661,1104.832,745.637,1104.835,745.614,1104.835z"/>
		</g>
		<g>
			<path style="fill:#331832;" d="M704.024,1382.44c0,0,0.233,9.313,6.534,11.94c6.301,2.627,24.559,4.998,17.737,10.985
				c-3.915,3.435-22.364,1.215-27.572,1.215c-5.209,0-10.1,2.27-13.97-1.216c-4.258-3.835-1.893-22.924-1.893-22.924
				s6.388,2.342,10.43,2.237C701.115,1384.525,704.024,1382.44,704.024,1382.44z"/>
		</g>
		<g>
			<path style="fill:#331832;" d="M631.657,1382.438c0,0,0.233,9.313,6.534,11.94c6.301,2.627,24.559,4.998,17.737,10.985
				c-3.915,3.435-22.364,1.215-27.572,1.215c-5.209,0-10.1,2.27-13.97-1.216c-4.258-3.835-3.739-23.708-3.739-23.708
				s8.235,3.126,12.277,3.021C628.749,1384.523,631.657,1382.438,631.657,1382.438z"/>
		</g>
		<g>
			<path style="fill:#366F90;" d="M744.841,1144.207c3.446,25.013,6.956,222.531-39.414,244.496c0,0-12.531,2.485-21.223-0.977
				c0,0-10.639,1.082-8.692-18.067c1.947-19.149,11.255-135.881,5.627-167.094c-5.627-31.212-5.866-60.034-5.866-60.034
				s32.456-5.283,66.382-1.379C743.304,1141.342,744.615,1142.565,744.841,1144.207z"/>
		</g>
		<g>
			<path style="fill:#366F90;" d="M702.412,1152.681c0,0-39.552,199.401-51.886,220.549c-12.335,21.148-43.387,16.04-44.685,9.21
				c-1.298-6.83,33.321-225.205,33.321-225.205s-0.568-8.034,6.654-9.447c7.718-1.51,36.052-7.203,50.168-7.425L702.412,1152.681z"
				/>
		</g>
		<g>
			<path style="fill:#020202;" d="M683.424,1247.067l-1.2-0.041c1.175-33.843,19.517-59.611,19.702-59.867l0.973,0.703
				C702.716,1188.114,684.585,1213.601,683.424,1247.067z"/>
		</g>
	</g>
	<g>
		<g>
			<g>
				<path style="fill:#FFB27D;" d="M2057.495,1102.874c-14.692,2.793-31.322,0.165-49.491-7.828
					c-13.722-6.037-23.447-13.12-23.854-13.418l16.051-22.979l-8.026,11.49l8.002-11.507c8.358,6.073,34.278,20.788,53.653,16.021
					c8.796-2.167,15.583-8.26,20.747-18.629l24.75,13.021c-8.791,17.649-22.242,29.127-38.897,33.192
					C2059.462,1102.474,2058.482,1102.686,2057.495,1102.874z"/>
			</g>
		</g>
		<g>
			<path style="fill:#FFB27D;" d="M2022.132,1084.671c0,0-9.128-13.596-18.405-17.783c-9.277-4.187-15.16-0.714-15.16-0.714
				l-9.956-3.975c0,0-1.427,37.768,24.448,31.114C2005.101,1092.788,2022.132,1084.671,2022.132,1084.671z"/>
		</g>
		<g>
			<path style="fill:#331832;" d="M1980.11,1044.645l11.21,64.531c0.734,4.223,4.809,7.008,9.01,6.157l30.035-6.084
				c4.039-0.818,6.693-4.702,5.988-8.762l-11.047-63.595c-0.718-4.132-4.643-6.905-8.778-6.2l-30.198,5.147
				C1982.177,1036.547,1979.389,1040.494,1980.11,1044.645z"/>
		</g>
		<g>
			<path style="fill:#DAEBE8;" d="M1984.805,1042.638c0.031-1.108,0.954-1.982,2.063-1.951s1.982,0.954,1.951,2.063
				c-0.031,1.108-0.954,1.982-2.063,1.951C1985.648,1044.67,1984.775,1043.746,1984.805,1042.638z"/>
		</g>
		<g>
			<g>
				<path style="fill:#FFB27D;" d="M1971.08,1062.297c0,0-3.355-7.36,3.384-10.375c8.587-3.842,22.967-0.395,17.56,2.114
					c-4.794,2.224-12.36,3.752-12.36,3.752s19.292-3.618,18.673,0.645c-0.619,4.262-17.249,7.147-17.249,7.147
					s19.114-1.75,17.226,2.087c-1.888,3.838-16.972,6.551-16.972,6.551s18.588-2.717,16.29,1.689s-12.194,3.863-16.44,4.591
					c-4.012,0.688-5.754-1.676-6.14-5.593c0,0-2.651-3.677-2.258-6.299c0.151-1.006-0.916-1.796-1.12-2.483
					C1971.284,1064.81,1971.08,1062.297,1971.08,1062.297z"/>
			</g>
		</g>
		<g>
			<path style="fill:#331832;" d="M2114.804,1414.26c0,0-0.24,9.594-6.732,12.3c-6.491,2.706-25.3,5.148-18.272,11.316
				c4.033,3.539,23.038,1.252,28.404,1.252c5.366,0,10.404,2.338,14.392-1.253c4.387-3.951-0.001-23.615-0.001-23.615
				s-4.63,2.412-8.794,2.304C2117.8,1416.408,2114.804,1414.26,2114.804,1414.26z"/>
		</g>
		<g>
			<path style="fill:#331832;" d="M2189.353,1414.258c0,0-0.24,9.594-6.732,12.3c-6.491,2.706-25.3,5.148-18.272,11.316
				c4.033,3.539,23.038,1.252,28.404,1.252c5.366,0,10.404,2.338,14.392-1.253c4.387-3.951-0.001-23.615-0.001-23.615
				s-4.63,2.412-8.794,2.304C2192.349,1416.406,2189.353,1414.258,2189.353,1414.258z"/>
		</g>
		<g>
			<path style="fill:#6DA49A;" d="M2066.557,1151.271c0,0-1.2,40.156,11.617,117.191c9.253,55.613,20.176,111.653,25.536,138.519
				c1.917,9.61,10,16.637,19.579,17.021l5.148,0.206c10.357,0.415,18.763-8.482,18.007-19.059l-13.003-181.763l-3.206-59.824
				L2066.557,1151.271z"/>
		</g>
		<g>
			<path style="fill:#331832;" d="M2183.8,1186.61c-0.591,4.888-28.227,4.294-62.064,0.011
				c-33.837-4.283-60.175-11.613-59.583-16.501c0.591-4.888,27.887-5.481,61.723-1.199
				C2157.712,1173.204,2184.39,1181.722,2183.8,1186.61z"/>
		</g>
		<g>
			<path style="fill:#6DA49A;" d="M2105.405,1179.953l72.24,232.057c3.024,9.714,11.769,16.369,21.731,16.54l4.342,0.074
				c10.252,0.175,18.089-9.304,16.219-19.619l-39.517-218.048c-0.574-2.592-2.487-4.653-4.987-5.373
				C2161.884,1181.676,2104.075,1170.356,2105.405,1179.953z"/>
		</g>
		<g>
			<g>
				<g>
					<path style="fill:#FFB27D;" d="M2188.405,1170.219l-16.378-19.025c0.292-0.182,32.443-20.48,29.364-49.383
						c-1.605-15.067-10.637-27.188-26.845-36.025c-12.899-7.034-25.558-9.239-25.682-9.259l3.851-24.683
						c0.672,0.11,16.647,2.792,33.32,11.884c23.436,12.779,37.143,31.927,39.641,55.375c2.017,18.937-4.605,37.768-19.15,54.458
						C2196.092,1165.533,2196.556,1166.252,2188.405,1170.219z"/>
				</g>
			</g>
		</g>
		<g>
			<path style="fill:#764678;" d="M2172.502,1053.005c0,0-9.612-27.042-43.851-25.812c-34.24,1.23-60.093,46.224-66.498,142.927
				c0,0,56.067-12.294,121.747,16.387C2183.9,1186.507,2187.541,1092.421,2172.502,1053.005z"/>
		</g>
		<g>
			<path style="fill:#764678;" d="M2199.391,1047.288l-27.1,19.616c0,0-62.351,6.238-78.903,3.235
				c-16.552-3.003-21.094-16.39-21.094-16.39s17.629-20.091,47.593-25.455c2.815-0.508,5.735-0.881,8.762-1.098
				c5.082-0.361,10.164-0.205,15.146,0.332C2173.399,1030.722,2199.391,1047.288,2199.391,1047.288z"/>
		</g>
		<g>
			<path style="fill:#331832;" d="M2199.39,1047.288c1.469,2.125-3.406,8.238-10.889,13.655c-7.483,5.417-14.74,8.086-16.209,5.962
				c-1.469-2.125,3.406-8.238,10.889-13.655C2190.664,1047.832,2197.921,1045.163,2199.39,1047.288z"/>
		</g>
		<g>
			<path style="fill:#EC865C;" d="M2217.839,1108.427c-2.481,0-4.499-2.84-4.5-6.331c0-3.49,2.019-6.331,4.5-6.331
				c2.481,0,4.5,2.841,4.5,6.331S2220.319,1108.427,2217.839,1108.427z M2217.838,1096.954c-1.794,0-3.31,2.355-3.31,5.142
				c0,2.835,1.486,5.142,3.311,5.142c1.794,0,3.31-2.355,3.31-5.142C2221.149,1099.309,2219.633,1096.954,2217.838,1096.954z"/>
		</g>
		<g>
			<path style="fill:#FFB27D;" d="M2143.736,1027.52c-3.662-0.392-6.843-2.69-8.3-6.073l-4.564-10.599l-1.324-3.076l-7.788-18.088
				l1.351,18.746l0.812,11.251l0.231,3.207c0.189,2.617-1.64,4.932-4.223,5.397l-0.045,0.008c-1.386,2.254-3.3,6.835,2.419,8.654
				c6.72,2.139,17.589-3.151,21.49-9.421C2143.776,1027.524,2143.756,1027.522,2143.736,1027.52z"/>
		</g>
		<g>
			<path style="fill:#FFB27D;" d="M2185.233,1142.8c0,0-10.146-9.288-18.156-8.468c-8.01,0.82-17.621,7.922-12.548,8.469
				c5.073,0.546,11.748-0.547,11.748-0.547s-14.15,3.005-12.014,6.01s14.417,0.273,14.417,0.273s-16.553,4.917-13.616,7.103
				c2.937,2.185,15.485-1.64,15.485-1.64s-15.218,5.191-11.747,7.649c3.471,2.458,12.548-4.371,14.684-1.366
				s6.141,14.751,15.219,9.834L2185.233,1142.8z"/>
		</g>
		<g>
			<path style="fill:#020202;" d="M2137.692,1283.673l-15.536-47.228c-3.494-10.619-10.679-19.483-20.233-24.957l0.604-1.055
				c9.815,5.624,17.196,14.727,20.783,25.632l15.536,47.228L2137.692,1283.673z"/>
		</g>
		<g>
			<path style="fill:#FFB27D;" d="M2177.289,1067.268c0,0-1.502-4.507,5.306-9.527c6.808-5.02,15.635-6.147,15.635-6.147
				l1.786,8.605l-9.612,4.2L2177.289,1067.268z"/>
		</g>
		<g>
			<path style="fill:#331832;" d="M2142.947,986.598c0,0-0.726,3.077,1.043,9.381c2.588,9.225-7.955,13.076-10.652,10.443
				c-0.334-0.326,0.108-16.016,0.108-16.016l3.37-2.002L2142.947,986.598z"/>
		</g>
		<g>
			<path style="fill:#331832;" d="M2130.892,1010.538c-0.003,0.104-0.01,0.207-0.02,0.31c-0.447,6.043-6.91,8.866-6.91,8.866
				l-0.039-0.033l-0.812-11.251c1.976-0.724,4.791-1.468,6.438-0.658C2130.409,1008.196,2130.95,1009.043,2130.892,1010.538z"/>
		</g>
		<g>
			<path style="fill:#FFB27D;" d="M2103.297,992.682c0-12,7.885-21.729,17.612-21.729c9.727,0,17.612,9.728,17.613,21.728
				c0,12-7.885,21.729-17.612,21.729S2103.297,1004.683,2103.297,992.682z"/>
		</g>
		<g>
			<path style="fill:#331832;" d="M2113.933,976.003c0.489,0.667-2.283,11.846,18.426,14.514
				c20.708,2.669,8.268-22.456-7.012-23.023c-22.063-0.819-25.274,14.015-23.154,19.354S2113.933,976.003,2113.933,976.003z"/>
		</g>
		<g>
			<path style="fill:#331832;" d="M2145.85,962.261c0,0-9.302,6.223-2.146,12.08c7.156,5.857,26.833,8.419,21.467,18.302
				c-5.366,9.884-10.017,24.526-0.357,26.356c9.66,1.83,15.742,1.098,19.678,8.785c3.936,7.687,21.467,2.928,20.035-6.223
				c-1.431-9.152,13.595-17.205,7.155-25.624s-22.182-15.74-26.118-26.722C2181.627,958.234,2153.363,957.502,2145.85,962.261z"/>
		</g>
		<g>
			<path style="fill:#331832;" d="M2130.076,986.959c0,0,8.463,8.922,5.528,18.042c0,0,4.908-5.363,5.017-7.365
				c0.109-2.002-1.196-9.232-1.196-9.232L2130.076,986.959z"/>
		</g>
		<g>
			<path style="fill:#FFB27D;" d="M2136.166,995.959c-1.995,1.905-4.784,2.1-6.231,0.436c-1.446-1.664-1.001-4.557,0.994-6.462
				c1.995-1.905,4.784-2.1,6.23-0.436C2138.606,991.161,2138.161,994.054,2136.166,995.959z"/>
		</g>
		<g>
			<path style="fill:#FFFFFF;" d="M2200.233,1030.766c-0.05,0-0.101-0.009-0.151-0.029c-2.497-0.964-3.978-2.181-4.532-3.717
				c-0.842-2.342,0.597-4.907,2.122-7.623c1.335-2.38,2.716-4.84,2.384-7.047c-0.392-2.605-3.814-3.214-7.438-3.859
				c-3.054-0.544-6.213-1.105-7.465-3.056c-0.595-0.927-0.714-2.105-0.353-3.501c0.399-1.541,0.889-2.921,1.362-4.255
				c2.036-5.736,3.644-10.266-5.349-20.642c-11.532-13.307-21.083-13.951-29.691-12.659c-1.004,0.15-3.554,1.464-3.54,2.632
				c0.007,0.602,0.829,2.105,8.292,3.042c0.144,0.03,10.606,2.47,15.644,13.758c2.683,6.013-1.129,12.449-4.193,17.619
				c-2.056,3.47-3.831,6.466-3.277,8.477c0.201,0.73,0.712,1.308,1.563,1.771c2.089,1.136,4.43,1.769,6.694,2.381
				c5.825,1.576,11.849,3.205,12.606,13.698c0.016,0.232-0.157,0.432-0.388,0.449c-0.248-0.002-0.432-0.158-0.449-0.388
				c-0.713-9.9-6.19-11.38-11.988-12.949c-2.311-0.624-4.701-1.271-6.876-2.454c-1.047-0.569-1.71-1.338-1.971-2.285
				c-0.649-2.354,1.211-5.493,3.364-9.127c3.119-5.265,6.656-11.232,4.149-16.85c-4.868-10.907-14.92-13.251-15.021-13.273
				c-6.013-0.754-8.966-2.018-8.988-3.858c-0.021-1.857,3.153-3.306,4.255-3.471c8.843-1.323,18.652-0.673,30.45,12.939
				c9.313,10.745,7.633,15.478,5.506,21.472c-0.468,1.317-0.951,2.68-1.341,4.185c-0.304,1.177-0.224,2.105,0.246,2.838
				c1.055,1.642,4.031,2.172,6.907,2.684c3.756,0.668,7.639,1.359,8.121,4.56c0.375,2.491-1.078,5.079-2.482,7.582
				c-1.427,2.544-2.777,4.947-2.064,6.929c0.465,1.294,1.788,2.347,4.044,3.219c0.216,0.083,0.323,0.326,0.24,0.542
				C2200.56,1030.664,2200.401,1030.766,2200.233,1030.766z"/>
		</g>
		<g>
			<path style="fill:#FFFFFF;" d="M2132.521,983.93c-0.003,0-0.006,0-0.009,0c-7.963-0.17-11.923-6.439-12.087-6.706
				c-0.122-0.197-0.061-0.455,0.136-0.577c0.196-0.119,0.456-0.06,0.577,0.136c0.038,0.062,3.896,6.149,11.392,6.308
				c0.232,0.005,0.415,0.197,0.41,0.429C2132.936,983.748,2132.749,983.93,2132.521,983.93z"/>
		</g>
		<g>
			<path style="fill:#E9845C;" d="M2166.382,1142.532l-0.208-0.557c0.165-0.062,4.066-1.497,6.228,0.036l-0.343,0.485
				C2170.152,1141.145,2166.419,1142.517,2166.382,1142.532z"/>
		</g>
		<g>
			<path style="fill:#E9845C;" d="M2168.79,1148.814l-0.219-0.553c0.158-0.063,3.917-1.517,7.337,0.005l-0.241,0.542
				C2172.479,1147.392,2168.826,1148.8,2168.79,1148.814z"/>
		</g>
		<g>
			<path style="fill:#E9845C;" d="M2170.654,1154.279l-0.208-0.557c0.196-0.073,4.806-1.775,6.97,0.05l-0.383,0.454
				C2175.132,1152.626,2170.7,1154.261,2170.654,1154.279z"/>
		</g>
		<g>
			<path style="fill:#6DA49A;" d="M2067.166,1174.498c0,0,15.726-2.187,39.343-0.442c36.577,2.703,67.64,11.171,67.64,11.171
				l-11.61,1.951l-72.702,2.88l-14.634-12.003L2067.166,1174.498z"/>
		</g>
		<g>
			<path style="fill:#E9633E;" d="M2111.184,1006.743c0,0,6.016,0.138,12.032-1.975c0,0,0.5,5.93-6.016,6.327
				C2113.411,1011.326,2111.184,1006.743,2111.184,1006.743z"/>
		</g>
		<g>
			<path style="fill:#FFFFFF;" d="M2111.184,1006.743c0,0,1.456,1.208,4.852,1.193c3.397-0.015,7.18-3.168,7.18-3.168
				S2115.967,1006.76,2111.184,1006.743z"/>
		</g>
		<g>
			<g>
				<path style="fill:#080435;" d="M2119.206,992.892c-0.117-0.032-0.219-0.117-0.267-0.238c-0.082-0.205,0.017-0.438,0.222-0.52
					c0.121-0.048,2.817-1.435,5.186,1.156c0.149,0.163,0.146,0.414-0.014,0.567c-0.16,0.152-0.383,0.11-0.567-0.014
					c-1.84-1.237-4.206-1.004-4.307-0.965C2119.375,992.911,2119.287,992.914,2119.206,992.892z"/>
			</g>
		</g>
		<g>
			<path style="fill:#080435;" d="M2122.375,997.294c0.031,0.955-0.507,1.748-1.2,1.77c-0.693,0.022-1.28-0.735-1.311-1.69
				c-0.03-0.956,0.507-1.748,1.2-1.77C2121.758,995.582,2122.345,996.339,2122.375,997.294z"/>
		</g>
		<g>
			<g>
				<path style="fill:#080435;" d="M2104.906,994.98c-0.121,0.015-0.247-0.024-0.338-0.118c-0.154-0.159-0.151-0.411,0.007-0.566
					c0.093-0.091,2.058-2.4,5.236-0.907c0.2,0.094,0.293,0.327,0.203,0.529c-0.09,0.202-0.312,0.247-0.529,0.203
					c-2.172-0.443-4.272,0.674-4.35,0.749C2105.07,994.933,2104.99,994.97,2104.906,994.98z"/>
			</g>
		</g>
		<g>
			<path style="fill:#080435;" d="M2109.514,997.843c0.392,0.872,0.197,1.809-0.436,2.094c-0.633,0.285-1.464-0.192-1.856-1.063
				c-0.392-0.872-0.197-1.809,0.436-2.094C2108.291,996.495,2109.122,996.971,2109.514,997.843z"/>
		</g>
		<g>
			
				<rect x="2078.378" y="1059.303" transform="matrix(0.4711 -0.8821 0.8821 0.4711 169.0659 2401.3958)" style="fill:#331832;" width="17.117" height="0.839"/>
		</g>
	</g>
	<g>
		<g>
			<path style="fill:#FFB27D;" d="M1697.711,1213.313c-2.834-9.69-6.288-15.46-6.288-15.46s-21.379,0.122-22.414,2
				c-2.389,4.331-5.162,13.932-7.466,18.308c-0.999,1.897-3.918,8.508-2.158,9.746c1.529,1.077,6.352-3.082,8.408-5.336
				c1.766,14.018,10.646,33.679,9.089,4.033c0.016-0.001,0.033-0.002,0.049-0.003c0.436,2.983,2.86,19.579,6.629,17.434
				c3.326-1.894,2.085-13.848,1.422-18.762c0.045-0.011,0.09-0.023,0.135-0.034c1.11,4.937,4.099,16.784,6.676,13.966
				c3.234-3.537,2.19-16.673,2.19-16.673s1.706,16.752,5.941,13.128c2.888-2.472-0.619-15.847-1.615-20.555
				C1698.162,1214.421,1697.958,1213.832,1697.711,1213.313z"/>
		</g>
		<g>
			<g>
				<g>
					<path style="fill:#92A5E6;" d="M1528.204,1126.052c-18.092,3.413-53.854,10.408-80.588-8.276
						c-15.093-10.549-27.126-25.277-27.627-25.642l19.766-28.082l-9.883,14.041l9.854-14.062
						c10.292,7.422,27.321,30.058,51.179,24.233c10.832-2.648,23.437-4.285,36.486-23.512l34.43,12.006
						C1550.996,1098.326,1554.153,1122.213,1528.204,1126.052z"/>
				</g>
			</g>
			<g>
				<path style="fill:#FFB27D;" d="M1466.76,1095.853c0,0-11.24-16.615-22.665-21.731c-11.424-5.117-18.669-0.872-18.669-0.872
					l-12.26-4.858c0,0-1.757,46.155,30.105,38.023C1445.788,1105.772,1466.76,1095.853,1466.76,1095.853z"/>
			</g>
			<g>
				<path style="fill:#6DA49A;" d="M1414.992,1044.333l11.71,66.901c0.766,4.378,5.024,7.265,9.412,6.383l31.377-6.307
					c4.219-0.848,6.992-4.875,6.255-9.084l-11.541-65.93c-0.75-4.284-4.851-7.159-9.17-6.428l-31.547,5.336
					C1417.152,1035.937,1414.239,1040.029,1414.992,1044.333z"/>
			</g>
			<g>
				<path style="fill:#100B47;" d="M1419.897,1042.252c0.032-1.149,0.997-2.055,2.155-2.023c1.158,0.032,2.07,0.989,2.038,2.138
					c-0.032,1.149-0.997,2.055-2.155,2.023C1420.777,1044.359,1419.865,1043.401,1419.897,1042.252z"/>
			</g>
			<g>
				<g>
					<path style="fill:#FFB27D;" d="M1407.769,1069.962c0,0-4.128-8.987,4.164-12.668c10.565-4.691,28.26-0.482,21.607,2.582
						c-5.899,2.716-15.209,4.582-15.209,4.582s23.738-4.417,22.977,0.788c-0.761,5.205-21.224,8.728-21.224,8.728
						s23.519-2.137,21.195,2.549c-2.323,4.686-20.884,8-20.884,8s22.872-3.318,20.045,2.063c-2.827,5.381-15.005,4.717-20.228,5.606
						c-4.936,0.84-7.08-2.046-7.555-6.83c0,0-3.263-4.489-2.778-7.692c0.186-1.228-1.127-2.193-1.378-3.032
						C1408.021,1073.031,1407.769,1069.962,1407.769,1069.962z"/>
				</g>
			</g>
			<g>
				<path style="fill:#331832;" d="M1649.85,1199.203c-0.125,4.84-29.614,6.762-66.087,5.633
					c-36.473-1.129-65.619-6.135-65.494-10.974c0.125-4.84,29.473-7.681,65.946-6.552
					C1620.688,1188.439,1649.975,1194.364,1649.85,1199.203z"/>
			</g>
			<g>
				<path style="fill:#92A5E6;" d="M1640.922,1062.187c0,0-6.449-25.367-54.035-25.625c-68.623-0.371-62.269,62.203-68.618,157.299
					c0,0,41.605-17.237,131.581,5.342C1649.85,1199.203,1655.823,1100.948,1640.922,1062.187z"/>
			</g>
			<g>
				<path style="fill:#92A5E6;" d="M1658.487,1058.549l-31.08,17.065c0,0-69.534,15.223-87.599,12.269
					c-18.065-2.954-21.54-10.279-21.54-10.279s19.241-34.685,51.945-39.96c3.073-0.5,6.259-0.866,9.564-1.08
					c5.547-0.355,11.102-0.281,16.531,0.326C1637.757,1041.526,1658.487,1058.549,1658.487,1058.549z"/>
			</g>
			<g>
				<path style="fill:#FFB27D;" d="M1593.429,1030.757l-3.592-11.505l-1.045-3.349l-6.148-19.693l-0.809,19.59l-0.484,11.758
					l-0.153,3.722c-0.104,2.526-1.656,3.057-3.544,5.253c-0.765,0.889-5.662,6.283-0.104,8.72
					c6.922,3.036,19.864-1.561,24.785-7.581C1602.296,1037.662,1594.59,1034.475,1593.429,1030.757z"/>
			</g>
			<g>
				<g>
					<path style="fill:#FFB27D;" d="M1667.667,1207.552c-2.861-31.258-9.424-75.949-24.447-111.342
						c-3.481-8.201-4.931-11.281-7.646-15.758c-2.185-3.603,1.727-11.523,7.899-15.299c5.791-3.544,14.808-2.963,16.235-1.209
						c2.426,2.984,5.015,8.7,9.044,17.776c13.998,31.537,22.385,72.276,25.783,124.8L1667.667,1207.552z"/>
				</g>
			</g>
			<g>
				<path style="fill:#5C305D;" d="M1566.825,988.815c0,0-1.254,4.767,0,10.744c1.254,5.977,7.379-8.714,7.379-8.714
					L1566.825,988.815z"/>
			</g>
			<g>
				
					<ellipse transform="matrix(0.1357 -0.9908 0.9908 0.1357 374.4432 2436.3364)" style="fill:#FFB27D;" cx="1583.582" cy="1003.56" rx="21.106" ry="17.633"/>
			</g>
			<g>
				<g>
					<path style="fill:#080435;" d="M1582.654,1002.676c-0.092-0.057-0.156-0.156-0.166-0.271c-0.016-0.195,0.129-0.366,0.326-0.383
						c0.116-0.01,2.779-0.482,4.121,2.328c0.085,0.177,0.016,0.388-0.161,0.476s-0.355-0.007-0.48-0.159
						c-1.245-1.525-3.325-1.944-3.421-1.937C1582.794,1002.736,1582.718,1002.716,1582.654,1002.676z"/>
				</g>
			</g>
			<g>
				<path style="fill:#080435;" d="M1584.204,1007.227c-0.224,0.817-0.891,1.348-1.488,1.186c-0.597-0.162-0.899-0.955-0.675-1.772
					c0.225-0.817,0.891-1.348,1.488-1.186C1584.126,1005.617,1584.429,1006.41,1584.204,1007.227z"/>
			</g>
			<g>
				<g>
					<path style="fill:#080435;" d="M1569.429,1001.623c-0.083-0.014-0.156-0.076-0.193-0.177c-0.063-0.169-0.001-0.384,0.139-0.48
						c0.083-0.056,1.917-1.577,3.645,0.411c0.109,0.125,0.114,0.344,0.007,0.496c-0.107,0.151-0.263,0.14-0.395,0.053
						c-1.318-0.867-2.958-0.391-3.027-0.345C1569.547,1001.62,1569.486,1001.633,1569.429,1001.623z"/>
				</g>
			</g>
			<g>
				<path style="fill:#080435;" d="M1572.689,1005.258c0.106,0.84-0.306,1.583-0.92,1.659c-0.614,0.076-1.198-0.543-1.304-1.383
					c-0.106-0.84,0.306-1.583,0.92-1.659S1572.583,1004.419,1572.689,1005.258z"/>
			</g>
			<g>
				<path style="fill:#5C305D;" d="M1612.815,1000.357c0,0-5.894,12.625-14.254,13.551c0,0,6.76-9.621-7.488-15.484
					C1591.073,998.423,1604.154,996.381,1612.815,1000.357z"/>
			</g>
			<g>
				<path style="fill:#FFB27D;" d="M1601.029,1007.324c-1.788,1.129-4.061,0.759-5.078-0.827c-1.017-1.586-0.391-3.786,1.397-4.915
					c1.788-1.129,4.061-0.759,5.078,0.827C1603.443,1003.995,1602.817,1006.195,1601.029,1007.324z"/>
			</g>
			<g>
				<path style="fill:#5C305D;" d="M1591.073,998.423c0,0,1.141,10.594-1.032,12.597c-2.173,2.003-16.52,2.865-23.216,0.297l0,0
					c-0.112,6.804,4.721,12.811,11.483,13.938c2.237,0.373,4.551,0.376,6.85-0.023l0,0c4.687-0.813,9.244-2.737,11.177-7.052
					c0.588-1.313-1.123-9.391-1.123-9.391s-0.643-4.741,2.136-7.207C1597.348,1001.582,1594.14,998.721,1591.073,998.423z"/>
			</g>
			<g>
				<path style="fill:#331832;" d="M1591.073,998.423c0,0,1.178-7.409-4.674-7.936c-5.852-0.528-12.527-1.505-14.823,0
					c-2.296,1.505-5.038,7.412-5.038,7.412s-3.21-11.108,2.673-15.859s24.636-11.004,36.607-2.73s6.997,21.048,6.997,21.048
					S1604.265,997.771,1591.073,998.423z"/>
			</g>
			<g>
				<path style="fill:#331832;" d="M1599.189,979.309c0,0,8.823-7.231,6.828-12.579c-1.995-5.347-11.334-3.654-14.944-2.818
					c-3.61,0.836-4.22,7.233-1.321,11.36C1592.65,979.4,1599.189,979.309,1599.189,979.309z"/>
			</g>
			<g>
				<path style="fill:#331832;" d="M1585.603,1432.396c-4.233-0.23-8.163,1.948-10.241,5.615c-0.977,1.724-2.4,3.29-4.471,4.147
					c-6.369,2.635-24.824,5.013-17.928,11.019c3.957,3.446,22.605,1.219,27.87,1.219c5.265,0,10.209,2.277,14.121-1.22
					c2.344-2.095,2.135-8.725,1.459-14.331c-0.488-4.044-4.165-7.04-8.236-6.522c-0.617,0.078-1.24,0.118-1.853,0.102
					C1586.078,1432.419,1585.838,1432.409,1585.603,1432.396z"/>
			</g>
			<g>
				<path style="fill:#331832;" d="M1650.643,1430.18c0,0-0.236,9.342-6.605,11.977c-6.369,2.635-24.825,5.013-17.928,11.019
					c3.957,3.446,22.605,1.219,27.87,1.219c5.265,0,10.209,2.277,14.121-1.22c4.304-3.847-0.001-22.995-0.001-22.995
					s-4.543,2.349-8.629,2.244C1653.583,1432.271,1650.643,1430.18,1650.643,1430.18z"/>
			</g>
			<g>
				<path style="fill:#366F90;" d="M1538.013,1195.198c-2.879,0.304-5.16,2.536-5.508,5.388c-0.693,5.686-0.806,17.699,2.628,42.624
					c5.044,36.617,24.118,170.239,27.286,188.048c1.133,6.37,2.431,10.291,11.735,11.635l12.358-0.241
					c10.06,1.453,13.936-9.265,14.007-16.122l-8.09-205.836l32.159-24.349c0,0-24.069-3.053-51.278-3.031
					C1557.941,1193.325,1544.536,1194.507,1538.013,1195.198z"/>
			</g>
			<g>
				<path style="fill:#366F90;" d="M1568.273,1202.028l70.882,225.963c2.967,9.458,11.547,15.939,21.322,16.105l4.26,0.072
					c10.059,0.171,17.749-9.06,15.915-19.104l-38.775-212.322c-0.563-2.524-2.005-13.679-4.458-14.381
					C1624.126,1194.557,1566.968,1192.682,1568.273,1202.028z"/>
			</g>
			<g>
				<path style="fill:#020202;" d="M1599.955,1303.026l-15.244-45.988c-3.428-10.341-10.478-18.97-19.852-24.3l0.588-1.033
					c9.63,5.475,16.872,14.339,20.393,24.959l15.244,45.988L1599.955,1303.026z"/>
			</g>
			<g>
				<g>
					<path style="fill:#366F90;" d="M1617.483,1042.31c0,0,7.397-6.781-1.498-9.173c-3.516-0.946-8.758-9.563-13.65-8.819
						c-4.892,0.743-7.775,28.073-27.404,36.526c0,0-4.832,4.178,3.034,3.992C1585.831,1064.651,1617.483,1042.31,1617.483,1042.31z"
						/>
				</g>
				<g>
					<path style="fill:#366F90;" d="M1574.931,1060.844c0,0-9.822-9.588-8.108-18.534s-3.28-16.6-5.715-12.556
						c-2.435,4.043-5.246,1.53-5.806,6.597c-0.559,5.067,7.027,29.972,13.908,29.972
						C1576.092,1066.323,1574.931,1060.844,1574.931,1060.844z"/>
				</g>
				<g>
					<path style="fill:#366F90;" d="M1577.153,1062.73c0,0,6.349,2.833,3.995,9.541c-2.354,6.708,0.937,9.417,0.937,9.417
						s-7.695,0.372-8.624-6.815C1572.533,1067.686,1577.153,1062.73,1577.153,1062.73z"/>
				</g>
				<g>
					<path style="fill:#366F90;" d="M1573.548,1062.73c0,0-8.062,2.726-8.409,7.93c-0.347,5.204,4.273,6.443,5.896,3.346
						s4.994-9.163,4.994-9.163L1573.548,1062.73z"/>
				</g>
			</g>
			<g>
				<path style="fill:#5C305D;" d="M1596.335,1018.18c0,0-0.057,7.284-5.262,11.376c-5.206,4.092-1.762,7.655-6.344,13.463
					c-4.581,5.808,0.872,5.94-7.241,10.163c-8.113,4.224-14.231,0.396-12.635-6.071c1.596-6.468-5.453-4.752-2.128-12.935
					c3.325-8.183,5.745-3.168,2.939-11.879c-2.806-8.711,1.161-10.979,1.161-10.979s4.484,0.305,8.106,0.948
					c3.622,0.643,6.877-0.487,9.405,0.317C1586.865,1013.387,1596.335,1018.18,1596.335,1018.18z"/>
			</g>
			<g>
				<path style="fill:#FFFFFF;" d="M1570.359,1015.138c0,0,5.497,1.476,11.504,0.899c0,0-0.881,5.52-6.959,4.42
					C1571.369,1019.818,1570.359,1015.138,1570.359,1015.138z"/>
			</g>
			<g>
				<path style="fill:#331832;" d="M1694.534,1195.24c0,0-18.526,1.971-28.123,0c0,0-1.246,4.895,0.759,7.131
					c0,0,22.195,1.667,27.364,0C1694.534,1202.371,1698.355,1198.698,1694.534,1195.24z"/>
			</g>
			<g>
				<path style="fill:#5C305D;" d="M1682.496,1206.427h0.344c3.645,0,6.627-2.982,6.627-6.627v-1.249
					c0-3.645-2.982-6.627-6.627-6.627h-0.344c-3.645,0-6.626,2.982-6.626,6.626v1.249
					C1675.87,1203.445,1678.852,1206.427,1682.496,1206.427z"/>
			</g>
			<g>
				<path style="fill:#92A5E6;" d="M1658.487,1058.549c0,0,15.703,9.222,30.981,69.789c15.277,60.567,3.797,61.667,3.797,61.667
					s-20.608,0.393-27.236-1.952c-6.628-2.346-10.174-56.622-23.39-78.695C1629.422,1087.284,1624.693,1053.486,1658.487,1058.549z"
					/>
			</g>
			<g>
				<path style="fill:#5C305D;" d="M1573.339,1101.917c0-1.282-1.048-2.322-2.34-2.322c-1.292,0-2.34,1.04-2.34,2.322
					s1.047,2.322,2.34,2.322C1572.291,1104.239,1573.339,1103.199,1573.339,1101.917z"/>
			</g>
			<g>
				<path style="fill:#5C305D;" d="M1573.339,1130.207c0-1.282-1.048-2.322-2.34-2.322c-1.292,0-2.34,1.039-2.34,2.322
					c0,1.282,1.047,2.322,2.34,2.322C1572.291,1132.529,1573.339,1131.49,1573.339,1130.207z"/>
			</g>
			<g>
				<path style="fill:#5C305D;" d="M1573.339,1163.74c0-1.282-1.048-2.322-2.34-2.322c-1.292,0-2.34,1.04-2.34,2.322
					c0,1.282,1.047,2.322,2.34,2.322C1572.291,1166.062,1573.339,1165.022,1573.339,1163.74z"/>
			</g>
			<g>
				<g>
					<path style="fill:#5C305D;" d="M1650.455,1131.14l1.159-0.28c-4.493-18.934-12.219-36.598-12.3-36.778l-1.088,0.48
						C1638.302,1094.732,1645.988,1112.306,1650.455,1131.14z"/>
				</g>
			</g>
			<g>
				<g>
					<path style="fill:#5C305D;" d="M1522.704,1127.922c1.304-21.073,11.856-48.145,11.962-48.415l-1.108-0.43
						c-0.111,0.27-10.728,27.511-12.043,48.764L1522.704,1127.922z"/>
				</g>
			</g>
		</g>
	</g>
	<g>
		<g>
			<path style="fill:#331832;" d="M1196.391,872.443c0,0-2.559,16.695-9.37,25.205c-4.489,5.61-16.873,16.72-8.066,20.422
				c7.033,2.957,20.578-10.207,24.974-13.481c4.397-3.275,11.027-9.473,9.556-14.755c-3.046-10.941-2.042-24.696-2.042-24.696
				L1196.391,872.443z"/>
		</g>
		<g>
			<path style="fill:#331832;" d="M1245.669,859.495c0,0,3.405,16.543-0.022,26.89c-2.259,6.821-10.007,21.543-0.463,21.953
				c7.623,0.327,15.745-16.724,18.729-21.323c2.984-4.599,7.046-12.716,3.83-17.157c-6.66-9.2-10.501-22.445-10.501-22.445
				L1245.669,859.495z"/>
		</g>
		<g>
			<g>
				<path style="fill:#764678;" d="M1240.896,871.185c-91.299-60.901-86.791-114.252-74.138-135.117
					c14.694-24.231,37.96-43.391,73.617-51.938c9.506-2.279,18.556-3.597,26.116-4.355c10.949-1.098,20.38,7.646,20.091,18.647
					l-0.819,31.071l0.07,0.002c-15.233-0.319-61.449,4.325-73.557,28.953c-2.517,5.119,58.94,77.302,56.646,90.254
					C1266.328,863.355,1249.823,877.14,1240.896,871.185z"/>
			</g>
		</g>
		<g>
			<g>
				<path style="fill:#764678;" d="M1205.496,880.306c-10.5,0.052-18.873-8.767-18.254-19.248
					c1.377-23.302,5.705-62.961,19.275-92.924c7.696-16.993,19.931-32.445,36.366-45.924c12.393-10.164,27.224-19.248,44.082-27
					c28.04-12.893,48.235-11.095,48.235-11.095l15.324,22.596c-0.203,0.041,4.298,22.794-28.098,43.083
					c-17.874,11.193-53.807,18.034-68.59,46.964c-10.553,20.653-14.586,48.037-15.927,67.173
					c-0.642,9.153-8.245,16.254-17.42,16.299L1205.496,880.306z"/>
			</g>
		</g>
		<g>
			<path style="fill:#FFB27D;" d="M1226.347,604.022c0,0-18.831,28.972-25.577,71.92c-4.464,28.42,47.256-4.666,47.256-4.666
				l2.3-59.369L1226.347,604.022z"/>
		</g>
		<g>
			<path style="fill:#73B3CE;" d="M1320.482,587.647c0,0-14.343-24.517-47.407-16.994c-33.064,7.524-46.536,41.294-48.904,122.394
				c0,0,19.857,35.137,110.185,28.287c10.008-0.759,24.35-2.082,19.458-18.311C1344.722,672.858,1335.915,612.688,1320.482,587.647z
				"/>
		</g>
		<g>
			<path style="fill:#73B3CE;" d="M1356.855,594.806l-34.01,6.393c0,0-59.471,17.588-76.12,17.727
				c-16.649,0.139-23.539-12.038-23.539-12.038s13.428-22.792,41.57-33.546c2.644-1.014,5.413-1.917,8.317-2.687
				c4.875-1.29,9.829-2.42,14.788-2.477C1344.002,567.534,1356.855,594.806,1356.855,594.806z"/>
		</g>
		<g>
			<path style="fill:#331832;" d="M1356.855,594.806c0.736,2.681-6.393,7.155-15.923,9.993c-9.53,2.838-17.852,2.965-18.588,0.284
				s6.393-7.155,15.923-9.993C1347.797,592.252,1356.119,592.125,1356.855,594.806z"/>
		</g>
		<g>
			<g>
				<path style="fill:#FFB27D;" d="M1350.981,670.33c-14.526,22.761-43.301,37.29-73.538,36.337l3.222-24.259
					c23.445-4.273,41.419-19.531,44.766-32.393c4.207-16.161,2.764-31.905,0.753-43.736c-0.191-1.122,0.252-2.251,1.156-2.944
					c2.997-2.297,10.765-6.964,24.644-7.239c1.235-0.025,2.328,0.804,2.645,1.998C1360.437,619.964,1363.943,650.02,1350.981,670.33
					z"/>
			</g>
		</g>
		<g>
			<path style="fill:#E9845C;" d="M1335.681,677.523c-0.497,0-0.978-0.096-1.43-0.29c-2.408-1.028-3.239-4.537-1.852-7.823
				c0.799-1.893,2.224-3.405,3.812-4.047c1.071-0.433,2.135-0.448,3.076-0.047c2.409,1.029,3.239,4.539,1.852,7.823
				c-0.799,1.893-2.225,3.406-3.813,4.047C1336.77,677.411,1336.217,677.523,1335.681,677.523z M1337.857,665.611
				c-0.462,0-0.943,0.098-1.428,0.294c-1.447,0.584-2.754,1.98-3.494,3.733c-1.263,2.99-0.57,6.158,1.545,7.061
				c0.795,0.339,1.703,0.323,2.627-0.052c1.448-0.585,2.754-1.98,3.495-3.733c1.263-2.99,0.57-6.158-1.544-7.061
				C1338.68,665.691,1338.276,665.611,1337.857,665.611z"/>
		</g>
		<g>
			<g>
				<path style="fill:#FFB27D;" d="M1280.666,682.409c0,0-21.716-6.906-28.619-3.64c-6.903,3.267-13.25,12.658-8.542,11.542
					c4.709-1.116,10.331-4.205,10.331-4.205s-11.702,7.163-8.842,9.174c2.86,2.011,12.978-4.317,12.978-4.317
					s-13.246,9.633-9.929,10.658c3.317,1.025,13.328-6.364,13.328-6.364s-11.966,9.455-8.085,10.555s9.838-7.878,12.698-5.866
					c2.86,2.011,10.157,11.247,16.719,3.979L1280.666,682.409z"/>
			</g>
			<g>
				<path style="fill:#E9845C;" d="M1254.018,686.322l-0.362-0.432c0.128-0.107,3.167-2.622,5.58-1.938l-0.154,0.543
					C1256.947,683.885,1254.048,686.297,1254.018,686.322z"/>
			</g>
			<g>
				<path style="fill:#E9845C;" d="M1258.158,691.176l-0.37-0.425c0.121-0.107,3.02-2.591,6.562-2.317l-0.044,0.562
					C1261.006,688.734,1258.186,691.152,1258.158,691.176z"/>
			</g>
			<g>
				<path style="fill:#E9845C;" d="M1261.554,695.473l-0.363-0.431c0.151-0.128,3.734-3.108,6.25-2.16l-0.199,0.527
					C1265.035,692.577,1261.589,695.445,1261.554,695.473z"/>
			</g>
		</g>
		<g>
			<g>
				<path style="fill:#331832;" d="M1253.991,716.196h-69.712c-1.459,0-2.755-0.928-3.216-2.304l-14.487-43.264
					c-0.73-2.179,0.904-4.427,3.216-4.427h67.04c3.055,0,5.767,1.943,6.731,4.822l13.644,40.746
					C1257.936,713.947,1256.303,716.196,1253.991,716.196z"/>
			</g>
			<g>
				<path style="fill:#331832;" d="M1249.616,716.196h-69.712c-1.46,0-2.755-0.928-3.216-2.304l-14.487-43.264
					c-0.729-2.179,0.904-4.427,3.216-4.427h67.04c3.055,0,5.767,1.943,6.731,4.822l13.644,40.746
					C1253.561,713.947,1251.928,716.196,1249.616,716.196z"/>
			</g>
			<g>
				<path style="fill:#DAEBE8;" d="M1200.77,689.782c0-1.643,1.895-2.312,3.549-2.312s4.355,1.803,4.338,4.104
					c-0.018,2.484-1.959,2.807-3.613,2.807C1203.389,694.381,1200.77,691.873,1200.77,689.782z"/>
			</g>
			<g>
				<path style="fill:#331832;" d="M1275.244,710.082h-95.376v6.114h97.369c1.138,0,2.06-0.922,2.06-2.06v0
					C1279.298,711.897,1277.483,710.082,1275.244,710.082z"/>
			</g>
			<g>
				<path style="fill:#366F90;" d="M1244.659,688.073c-0.034-0.129-3.454-12.955-5.669-16.94c-2.175-3.914-4.873-4.706-4.9-4.714
					l0.121-0.437c0.117,0.032,2.9,0.837,5.175,4.93c2.242,4.035,5.57,16.515,5.71,17.045L1244.659,688.073z"/>
			</g>
			<g>
				<path style="fill:#366F90;" d="M1254.962,710.308c-2.584,0-3.228-1.143-3.254-1.192l-5.448-16.261l0.429-0.144l5.433,16.226
					c0,0,0,0,0,0c0.006,0,0.589,0.919,2.84,0.919V710.308z"/>
			</g>
		</g>
		<g>
			<path style="fill:#020202;" d="M1190.709,828.919l-0.562-0.038c0.014-0.208,1.469-21.063,7.915-44.645
				c5.956-21.789,17.515-50.432,38.755-63.144l0.289,0.483c-21.08,12.616-32.572,41.119-38.501,62.809
				C1192.174,807.912,1190.723,828.711,1190.709,828.919z"/>
		</g>
		<g>
			<path style="fill:#020202;" d="M1237.243,868.527l-0.563-0.004c0.23-32.449,10.843-57.497,10.951-57.746l0.517,0.223
				C1248.041,811.248,1237.472,836.198,1237.243,868.527z"/>
		</g>
		<g>
			<path style="fill:#331832;" d="M1259.195,572.284c0,0,7.727-3.973,8.565-8.567s3.952-3.5,5.564-4.81
				c1.612-1.31-4.358-13.015-4.358-13.015l-17.211-4.506l3.741,21.177L1259.195,572.284z"/>
		</g>
		<g>
			<path style="fill:#FFB27D;" d="M1293.964,568.224c-3.594-0.044-6.896-1.984-8.622-5.137l-5.41-9.878l-1.569-2.867l-9.23-16.858
				l3.036,18.089l1.824,10.857l0.52,3.095c0.424,2.525-1.14,4.943-3.607,5.632l-0.043,0.012c-1.139,2.317-2.578,6.944,3.146,8.186
				c6.726,1.46,16.8-4.68,20.013-11.13C1294.002,568.224,1293.983,568.224,1293.964,568.224z"/>
		</g>
		<g>
			<path style="fill:#E1986C;" d="M1279.922,552.906c0.006,0.101,0.01,0.202,0.01,0.303c0.122,5.912-5.899,9.25-5.899,9.25
				l-0.041-0.029l-1.824-10.857c1.853-0.885,4.519-1.867,6.194-1.231C1279.238,550.674,1279.842,551.448,1279.922,552.906z"/>
		</g>
		<g>
			
				<ellipse transform="matrix(0.9955 -0.0942 0.0942 0.9955 -44.9145 121.9479)" style="fill:#FFB27D;" cx="1268.581" cy="536.475" rx="17.188" ry="21.206"/>
		</g>
		<g>
			<path style="fill:#FFFFFF;" d="M1260.659,551.008c0,0,5.858-0.419,11.509-3.025c0,0,1.031,5.715-5.263,6.701
				C1263.244,555.257,1260.659,551.008,1260.659,551.008z"/>
		</g>
		<g>
			<g>
				<path style="fill:#080435;" d="M1266.945,536.835c-0.117-0.02-0.223-0.093-0.281-0.207c-0.099-0.192-0.024-0.427,0.168-0.526
					c0.113-0.058,2.605-1.654,5.145,0.646c0.16,0.145,0.18,0.389,0.038,0.552c-0.142,0.163-0.362,0.142-0.552,0.038
					c-1.901-1.032-4.179-0.589-4.273-0.541C1267.112,536.838,1267.026,536.849,1266.945,536.835z"/>
			</g>
		</g>
		<g>
			<path style="fill:#080435;" d="M1271.234,540.545c0.118,0.926-0.332,1.745-1.004,1.83c-0.672,0.085-1.311-0.596-1.429-1.522
				c-0.117-0.926,0.332-1.745,1.004-1.83S1271.117,539.619,1271.234,540.545z"/>
		</g>
		<g>
			<path style="fill:#080435;" d="M1260.228,542.326c0.176,0.916-0.22,1.763-0.885,1.891c-0.665,0.128-1.347-0.511-1.523-1.427
				c-0.176-0.916,0.22-1.763,0.885-1.891C1259.37,540.771,1260.052,541.41,1260.228,542.326z"/>
		</g>
		<g>
			<path style="fill:#331832;" d="M1275.605,522.169c-12.797,4.366-20.971,16.971-20.114,30.464c0.05,0.783,0.113,1.587,0.192,2.412
				c0,0,9.034,1.125,10.33,9.763c0.406,2.707-7.016,8.087-7.587,7.895c-4.294-1.445-16-10.459-15.447-30.6
				c0.553-20.141,6.888-35.5,25.115-37.841c18.227-2.341,16.943,10.08,16.943,10.08S1282.322,519.877,1275.605,522.169z"/>
		</g>
		<g>
			<path style="fill:#331832;" d="M1273.043,522.449c0,0,0.329,0.171,0.868,0.512c2.077,1.316,7.271,5.161,8.725,11.494
				c1.831,7.975-5.464,13.739-2.739,19.784c2.725,6.045,7.699-1.498,12.371-0.864c4.672,0.634,7.823-1.817,7.262-10.988
				c-0.561-9.171-4.714-30.302-15.532-29.277L1273.043,522.449z"/>
		</g>
		<g>
			<path style="fill:#FFB27D;" d="M1285.673,538.069c-1.763,2.034-4.455,2.481-6.013,0.997s-1.392-4.336,0.371-6.37
				c1.763-2.034,4.455-2.481,6.013-0.997C1287.603,533.183,1287.437,536.035,1285.673,538.069z"/>
		</g>
		<g>
			<path style="fill:#FFFFFF;" d="M1252.065,563.211c-0.097,0-0.184-0.069-0.203-0.168c-2.513-13.082,1.028-26.339,5.652-33.673
				c3.772-5.982,7.993-8.622,10.87-9.783c3.133-1.264,5.343-1.106,5.432-1.098c0.114,0.009,0.199,0.109,0.19,0.222
				c-0.009,0.114-0.116,0.193-0.222,0.19c-0.089-0.004-8.833-0.55-15.919,10.69c-4.581,7.265-8.087,20.402-5.596,33.373
				c0.022,0.112-0.052,0.221-0.164,0.242C1252.092,563.209,1252.078,563.211,1252.065,563.211z"/>
		</g>
		<g>
			<path style="fill:#FFFFFF;" d="M1291.732,546.305c-0.023,0-0.048-0.004-0.071-0.013c-0.107-0.039-0.163-0.158-0.124-0.266
				c3.245-8.889-0.207-23.419-4.014-27.486c-3.718-3.973-8.67-1.264-8.879-1.146c-0.102,0.056-0.226,0.019-0.282-0.079
				c-0.056-0.1-0.021-0.226,0.078-0.282c0.053-0.031,5.441-2.988,9.384,1.224c3.873,4.138,7.392,18.895,4.101,27.911
				C1291.896,546.253,1291.817,546.305,1291.732,546.305z"/>
		</g>
		<g>
			<path style="fill:#FFFFFF;" d="M1249.37,547.036c-0.111,0-0.203-0.088-0.207-0.2c-0.002-0.062-0.221-6.327,0.733-13.148
				c1.287-9.201,3.979-14.978,8.001-17.171c4.987-2.719,9.502-2.689,12.409-2.184c3.155,0.548,5.102,1.723,5.183,1.773
				c0.097,0.06,0.128,0.187,0.069,0.284c-0.06,0.097-0.186,0.13-0.284,0.069c-0.077-0.047-7.848-4.667-17.178,0.421
				c-9.329,5.088-8.528,29.692-8.519,29.94c0.004,0.114-0.085,0.21-0.199,0.214C1249.374,547.036,1249.372,547.036,1249.37,547.036z
				"/>
		</g>
	</g>
	<g>
		<g>
			<path style="fill:#B8D5DC;" d="M846.024,1386.574c0,0-32.298-33.961-21.185-53.304c11.113-19.342,29.867,41.55,29.867,41.55
				s-9.724-72.003,10.419-73.253s0,73.253,0,73.253s7.467-17.372,14.76-18.447c7.293-1.075,5.209,14.731-7.814,30.2H846.024z"/>
		</g>
		<g>
			<path style="fill:#444092;" d="M848.31,1387.401c-0.093-0.098-9.333-9.865-16.895-22.203
				c-10.31-16.822-12.768-30.173-7.304-39.68c2.035-3.544,4.482-5.187,7.285-4.87c5.667,0.633,12.041,9.447,19.488,26.942
				c2.214,5.201,4.178,10.402,5.723,14.724c-1.786-18.981-3.831-56.67,6.382-69.113c2.157-2.628,4.775-4.055,7.782-4.241
				c2.931-0.182,5.359,0.871,7.202,3.129c9.231,11.314,1.031,52.312-3.484,71.511c3.349-5.577,8.083-11.753,12.923-12.467
				c2.265-0.332,4.083,0.511,5.124,2.378c3.837,6.882-3.705,22.922-12.894,33.836l-1.836-1.545
				c11.771-13.981,14.9-27.057,12.634-31.122c-0.551-0.987-1.405-1.36-2.677-1.172c-6.243,0.919-13.532,14.9-15.814,20.208
				l-2.261-0.787c0.044-0.165,4.49-16.689,7.453-34.733c3.875-23.599,3.521-39.018-1.026-44.591
				c-1.345-1.648-3.041-2.377-5.194-2.251c-2.347,0.146-4.334,1.248-6.075,3.369c-12.909,15.726-4.712,77.735-4.627,78.359
				l-2.336,0.514c-4.221-13.704-17.256-49.501-26.751-50.563c-1.786-0.202-3.401,1.003-4.938,3.68
				c-12.02,20.92,23.497,58.655,23.857,59.034L848.31,1387.401z"/>
		</g>
	</g>
	<g>
		<g>
			<path style="fill:#B8D5DC;" d="M1382.343,1456.952c0,0-23.405-20.936-15.351-32.859c8.053-11.924,21.643,25.614,21.643,25.614
				s-7.047-44.387,7.55-45.158c14.596-0.771,0,45.158,0,45.158s5.411-10.709,10.696-11.372c5.285-0.662,3.775,9.081-5.662,18.617
				H1382.343z"/>
		</g>
		<g>
			<path style="fill:#444092;" d="M1384.095,1457.55c-1.105-0.988-26.96-24.372-17.542-38.318c1.5-2.222,3.289-3.221,5.31-2.969
				c3.989,0.495,8.69,6.11,13.971,16.691c1.677,3.358,3.153,6.71,4.289,9.435c-1.268-11.267-2.813-33.977,3.988-42.381
				c1.664-2.057,3.743-3.166,6.177-3.295c2.364-0.123,4.24,0.712,5.608,2.481c5.971,7.727,0.14,32.318-3.046,43.81
				c2.43-3.508,5.939-7.516,9.511-7.964c1.766-0.217,3.126,0.434,3.823,1.847c1.746,3.545-1.016,11.98-9.575,20.629l-1.141-1.128
				c8.442-8.53,10.526-16.256,9.277-18.792c-0.387-0.785-1.105-1.101-2.185-0.964c-4.566,0.572-9.859,9.191-11.514,12.464
				l-1.481-0.605c0.031-0.098,3.135-9.914,5.277-20.786c2.8-14.205,2.724-23.725-0.216-27.531c-1.041-1.347-2.44-1.96-4.254-1.859
				c-1.988,0.104-3.629,0.988-5.014,2.701c-8.558,10.575-2.858,47.223-2.8,47.592l-1.546,0.399
				c-3.032-8.373-12.419-30.293-19.347-31.152c-1.388-0.172-2.631,0.57-3.782,2.276c-8.639,12.791,17.022,35.99,17.281,36.224
				L1384.095,1457.55z"/>
		</g>
	</g>
	<g>
		<g>
			<path style="fill:#B8D5DC;" d="M1466.019,1374.813c0,0-24.42-25.678-16.017-40.302s22.582,31.415,22.582,31.415
				s-7.352-54.44,7.877-55.386c15.23-0.945,0,55.386,0,55.386s5.645-13.135,11.16-13.947c5.514-0.812,3.939,11.138-5.908,22.834
				H1466.019z"/>
		</g>
		<g>
			<path style="fill:#444092;" d="M1467.748,1375.438c-0.07-0.074-7.056-7.458-12.774-16.786
				c-7.795-12.719-9.654-22.813-5.524-30.002c1.54-2.682,3.402-3.926,5.509-3.682c4.284,0.479,9.104,7.142,14.734,20.37
				c1.674,3.933,3.159,7.865,4.327,11.133c-1.35-14.352-2.896-42.847,4.825-52.256c1.631-1.987,3.61-3.066,5.883-3.207
				c2.233-0.136,4.053,0.658,5.446,2.366c6.979,8.555,0.779,39.553-2.634,54.069c2.533-4.216,6.111-8.887,9.77-9.426
				c1.709-0.253,3.087,0.385,3.873,1.798c2.902,5.203-2.801,17.331-9.748,25.582l-1.389-1.168c8.9-10.571,11.266-20.458,9.552-23.53
				c-0.416-0.747-1.057-1.029-2.024-0.887c-4.716,0.694-10.23,11.266-11.956,15.281l-1.71-0.596
				c0.034-0.124,3.394-12.618,5.635-26.261c2.931-17.843,2.662-29.501-0.775-33.715c-1.017-1.246-2.304-1.807-3.927-1.703
				c-1.774,0.111-3.277,0.943-4.594,2.547c-9.761,11.892-3.562,58.775-3.498,59.247l-1.766,0.388
				c-3.192-10.361-13.047-37.428-20.226-38.23c-1.342-0.155-2.57,0.759-3.733,2.782c-9.088,15.818,17.767,44.348,18.039,44.634
				L1467.748,1375.438z"/>
		</g>
	</g>
	<g>
		<g>
			<path style="fill:#B8D5DC;" d="M1829.075,1471.015c0,0-28.475-29.942-18.677-46.995s26.332,36.633,26.332,36.633
				s-8.573-63.481,9.186-64.584c17.759-1.102,0,64.584,0,64.584s6.583-15.316,13.013-16.264c6.43-0.947,4.593,12.987-6.889,26.626
				H1829.075z"/>
		</g>
		<g>
			<path style="fill:#444092;" d="M1831.092,1471.744c-0.082-0.086-8.229-8.698-14.895-19.575
				c-9.09-14.832-11.257-26.602-6.441-34.985c1.795-3.125,3.946-4.567,6.424-4.294c4.995,0.559,10.616,8.329,17.181,23.754
				c1.963,4.614,3.703,9.225,5.069,13.048c-0.5-5.384-1.03-12.489-1.22-19.958c-0.535-21.066,1.761-34.874,6.824-41.042
				c1.901-2.317,4.21-3.575,6.86-3.739c2.592-0.174,4.724,0.767,6.35,2.759c8.138,9.974,0.908,46.12-3.072,63.047
				c2.953-4.916,7.125-10.362,11.392-10.991c1.995-0.296,3.599,0.45,4.517,2.097c3.383,6.067-3.266,20.209-11.367,29.831
				l-1.619-1.362c10.377-12.327,13.136-23.855,11.138-27.438c-0.485-0.87-1.233-1.199-2.36-1.034
				c-5.504,0.811-11.93,13.137-13.942,17.818l-1.994-0.694c0.039-0.146,3.958-14.715,6.57-30.623
				c3.418-20.806,3.104-34.4-0.904-39.313c-1.186-1.453-2.682-2.1-4.579-1.985c-2.069,0.129-3.821,1.101-5.356,2.971
				c-11.383,13.869-4.154,68.535-4.08,69.085l-2.06,0.454c-3.721-12.082-15.212-43.643-23.584-44.58
				c-1.575-0.173-2.998,0.885-4.354,3.245c-10.597,18.444,20.717,51.713,21.034,52.046L1831.092,1471.744z"/>
		</g>
	</g>
	<g>
		<g>
			<path style="fill:#B8D5DC;" d="M2338.055,1390.31c0,0-28.475-29.942-18.677-46.995c9.798-17.053,26.332,36.633,26.332,36.633
				s-8.573-63.481,9.186-64.584c17.759-1.102,0,64.584,0,64.584s6.583-15.316,13.013-16.264c6.43-0.948,4.593,12.987-6.889,26.626
				H2338.055z"/>
		</g>
		<g>
			<path style="fill:#444092;" d="M2340.071,1391.039c-0.082-0.086-8.229-8.698-14.895-19.575
				c-9.09-14.831-11.257-26.602-6.441-34.985c1.795-3.126,3.953-4.564,6.424-4.294c4.995,0.559,10.616,8.33,17.181,23.754
				c1.963,4.613,3.703,9.225,5.069,13.048c-0.5-5.384-1.03-12.489-1.22-19.958c-0.535-21.066,1.761-34.874,6.823-41.042
				c1.901-2.317,4.21-3.575,6.861-3.739c2.59-0.172,4.725,0.767,6.35,2.759c8.139,9.974,0.908,46.12-3.072,63.048
				c2.953-4.916,7.126-10.363,11.392-10.992c1.995-0.296,3.6,0.45,4.518,2.097c3.383,6.067-3.267,20.208-11.368,29.831l-1.619-1.362
				c10.377-12.327,13.136-23.855,11.138-27.438c-0.484-0.87-1.231-1.2-2.36-1.034c-5.503,0.811-11.93,13.137-13.942,17.818
				l-1.994-0.694c0.04-0.146,3.959-14.715,6.571-30.623c3.417-20.806,3.104-34.4-0.905-39.313c-1.186-1.454-2.682-2.1-4.579-1.986
				c-2.069,0.128-3.821,1.101-5.356,2.971c-11.383,13.869-4.154,68.535-4.08,69.084l-2.06,0.454
				c-3.721-12.082-15.212-43.643-23.584-44.579c-1.576-0.176-2.997,0.885-4.354,3.245c-10.597,18.444,20.717,51.713,21.034,52.047
				L2340.071,1391.039z"/>
		</g>
	</g>
	<g>
		<g>
			<path style="fill:#FFB27D;" d="M1141.548,1294.021c2.181,3.888,24.089,37.823,19.504,71.014l-23.845-8.622l-10.896-44.74
				L1141.548,1294.021z"/>
		</g>
		<g>
			<path style="fill:#6DA49A;" d="M1046.332,1280.113c0,0,14.651-26.276,50.312-19.011c35.661,7.265,55.123,58.307,45.451,159.406
				c0,0-56.654-22.524-130.32-4.367C1011.775,1416.141,1023.9,1318.231,1046.332,1280.113z"/>
		</g>
		<g>
			<path style="fill:#6DA49A;" d="M1019.132,1269.496l25.067,25.023c0,0,64.262,17.362,82.111,17.155
				c17.849-0.208,24.875-13.253,24.875-13.253s-15.064-23.857-45.546-34.647c-2.863-1.018-5.859-1.915-8.994-2.669
				c-5.263-1.262-10.613-1.991-15.924-2.308C1049.168,1256.918,1019.132,1269.496,1019.132,1269.496z"/>
		</g>
		<g>
			<path style="fill:#331832;" d="M1019.133,1269.496c-4.007,4.355,2.173,9.113,9.094,16.023c6.922,6.91,14.072,10.94,15.971,9
				c1.899-1.939-2.173-9.113-9.094-16.023C1028.182,1271.586,1020.971,1267.498,1019.133,1269.496z"/>
		</g>
		<g>
			<path style="fill:#FFB27D;" d="M1040.865,1294.622c0,0,0.374-4.998-5.908-11.379c-3.783-3.843-8.573-6.355-11.785-7.745
				c-1.909-0.827-4.115,0.102-4.873,2.056l-2.009,5.181l9.357,6.025L1040.865,1294.622z"/>
		</g>
		<g>
			<path style="fill:#764678;" d="M1085.159,1387.31c0,0-77.332-41.907-105.049,3.808c-20.518,33.841,10.325,65.356,124.729,62.155
				c0,0,11.307-5.296,8.553-32.765C1112.3,1409.624,1085.159,1387.31,1085.159,1387.31z"/>
		</g>
		<g>
			<path style="fill:#764678;" d="M1085.159,1387.31c0,0,102.994-42.19,123.373-15.815c23.421,30.311,0.961,81.778-107.604,63.38
				l-13.23-14.367L1085.159,1387.31z"/>
		</g>
		<g>
			<path style="fill:#020202;" d="M1104.964,1453.448l-0.252-0.352c12.013-8.572,8.782-30.578,8.486-32.428l-78.064-28.411
				l0.148-0.408l78.301,28.498l0.022,0.123C1113.647,1420.708,1117.665,1444.386,1104.964,1453.448z"/>
		</g>
		<g>
			<path style="fill:#331832;" d="M1114.049,1428.064c0,0,18.981,0.772,27.897,5.144c8.916,4.373,4.155,15.047-13.948,14.762
				c-18.104-0.285-16.73-2.979-16.73-2.979S1114.707,1435.621,1114.049,1428.064z"/>
		</g>
		<g>
			<g>
				<path style="fill:#FFB27D;" d="M1089.752,1389.319c6.286,0,11.45-1.59,15.637-4.748c7.908-5.965,9.375-15.473,8.228-21.804
					l-7.566-4.399c-0.376-2.076-14.976,5.638-14.951,5.63c-0.067,0.022-6.968,2.019-30.896-10.209
					c-16.657-8.512-25.052-20.593-25.665-36.933c-0.462-12.318,5.029-19.236,6.325-22.235c0.172-0.399-8.05-8.643-7.814-9.482
					l-6.164-3.132c0.199-0.707-5.926-3.123-5.84-3.325l-4.757,4.052c-2.348,5.431-7.342,17.898-6.697,35.076
					c0.67,17.845,8.038,42.474,39.339,58.47C1066,1385.004,1079.397,1389.319,1089.752,1389.319z"/>
			</g>
		</g>
		<g>
			<g>
				<path style="fill:#73B3CE;" d="M1094.829,1390.322h66.738c1.397,0,2.638-0.888,3.078-2.205l13.869-41.419
					c0.698-2.086-0.865-4.238-3.079-4.238h-64.18c-2.925,0-5.521,1.86-6.444,4.616l-13.062,39.008
					C1091.052,1388.169,1092.615,1390.322,1094.829,1390.322z"/>
			</g>
			<g>
				<path style="fill:#73B3CE;" d="M1099.018,1390.322h66.738c1.397,0,2.638-0.888,3.079-2.205l13.869-41.419
					c0.698-2.086-0.865-4.238-3.079-4.238h-64.18c-2.925,0-5.521,1.86-6.444,4.616l-13.062,39.008
					C1095.241,1388.169,1096.804,1390.322,1099.018,1390.322z"/>
			</g>
			<g>
				<path style="fill:#DAEBE8;" d="M1145.78,1365.035c0-1.573-1.814-2.213-3.398-2.213s-4.169,1.726-4.153,3.929
					c0.018,2.378,1.876,2.687,3.459,2.687C1143.272,1369.438,1145.78,1367.037,1145.78,1365.035z"/>
			</g>
			<g>
				<path style="fill:#73B3CE;" d="M1074.482,1384.469h91.307v5.853h-93.216c-1.089,0-1.972-0.883-1.972-1.972l0,0
					C1070.601,1386.206,1072.339,1384.469,1074.482,1384.469z"/>
			</g>
			<g>
				<g>
					<path style="fill:#331832;" d="M1103.763,1363.399l-0.419-0.111c0.134-0.506,3.321-12.454,5.467-16.318
						c2.177-3.917,4.842-4.688,4.954-4.72l0.115,0.419c-0.026,0.007-2.609,0.766-4.69,4.512
						C1107.07,1350.997,1103.796,1363.275,1103.763,1363.399z"/>
				</g>
			</g>
			<g>
				<g>
					<path style="fill:#331832;" d="M1093.9,1384.686v-0.434c2.186,0,2.729-0.906,2.734-0.915l5.186-15.498l0.411,0.138
						l-5.202,15.534C1096.989,1383.591,1096.374,1384.686,1093.9,1384.686z"/>
				</g>
			</g>
		</g>
		<g>
			<path style="fill:#EC865C;" d="M1029.754,1353.412c-0.238,0-0.487-0.034-0.744-0.103c-1.436-0.385-3.015-1.823-4.119-3.754l0,0
				c-1.691-2.958-1.737-6.02-0.104-6.973c0.51-0.297,1.139-0.358,1.818-0.175c1.437,0.385,3.015,1.824,4.119,3.755
				c1.691,2.957,1.737,6.02,0.104,6.971C1030.511,1353.318,1030.148,1353.412,1029.754,1353.412z M1025.645,1349.123
				c0.978,1.712,2.388,3.025,3.591,3.348c0.458,0.122,0.848,0.094,1.157-0.087c1.176-0.686,0.984-3.338-0.42-5.791
				c-0.978-1.712-2.388-3.026-3.591-3.348c-0.457-0.121-0.847-0.093-1.157,0.087
				C1024.049,1344.017,1024.241,1346.67,1025.645,1349.123L1025.645,1349.123z"/>
		</g>
		<g>
			<path style="fill:#FFB27D;" d="M1080.17,1258.734c4.385-0.129,7.711-0.58,10.233-3.547l7.806-9.181l2.272-2.673l13.36-15.717
				l-7.016,18.379l-4.213,11.031l-1.333,3.492c-0.905,2.37,0.291,3.475,1.133,6.248c0.341,1.123,2.644,8.036-3.355,8.079
				c-7.473,0.055-16.925-8.632-19.001-16.132C1080.094,1258.719,1080.131,1258.735,1080.17,1258.734z"/>
		</g>
		<g>
			<path style="fill:#331832;" d="M1096.038,1240.106c0,0-14.711-14.138-6.224-26.072c8.486-11.933,10.607,19.152,10.607,19.152
				l-2.372,7.186L1096.038,1240.106z"/>
		</g>
		<g>
			<path style="fill:#331832;" d="M1098.283,1245.688c-0.028,0.105-0.052,0.21-0.073,0.317c-1.366,6.199,4.353,11.041,4.353,11.041
				l0.05-0.021l4.213-11.031c-1.79-1.341-4.426-2.963-6.344-2.662C1099.478,1243.489,1098.673,1244.171,1098.283,1245.688z"/>
		</g>
		<g>
			<path style="fill:#FFB27D;" d="M1129.426,1238.008c3.318-11.049-1.35-22.258-10.425-25.036
				c-9.075-2.778-19.121,3.927-22.438,14.976s1.35,22.258,10.425,25.036C1116.063,1255.761,1126.108,1249.057,1129.426,1238.008z"/>
		</g>
		<g>
			<path style="fill:#331832;" d="M1099.671,1226.351c0,0,4.684,3.407,8.611,0.528c3.927-2.879,6.704-5.609,15.496-1.184
				c8.792,4.425,18.417,2.438,20.194-2.545c1.777-4.983-2.41-8.799-7.933-8.551c-5.523,0.247,1.169-2.781-2.673-8.018
				c-3.842-5.238-13.586,0.158-18.417-2.438c-4.831-2.596-22.039-4.852-25.135,9.892L1099.671,1226.351z"/>
		</g>
		<g>
			<path style="fill:#FFB27D;" d="M1095.995,1229.304c1.129,1.744,3.296,2.331,4.839,1.312c1.543-1.019,1.878-3.258,0.749-5.002
				c-1.129-1.743-3.296-2.331-4.839-1.312C1095.201,1225.321,1094.866,1227.56,1095.995,1229.304z"/>
		</g>
		<g>
			<path style="fill:#FFFFFF;" d="M1134.262,1221.424c-3.694,0-8.707-4.507-8.937-4.716l0.432-0.476
				c0.059,0.054,5.91,5.316,9.291,4.457c1.3-0.33,2.035-0.946,1.918-1.606c-0.111-0.63-1.038-1.224-2.342-1.094
				c-2.858,0.298-4.414-0.679-4.48-0.721l0.346-0.543c0.014,0.008,1.451,0.891,4.068,0.624c1.76-0.182,2.879,0.702,3.042,1.622
				c0.142,0.802-0.412,1.84-2.393,2.342C1134.905,1221.389,1134.588,1221.424,1134.262,1221.424z"/>
		</g>
		<g>
			<path style="fill:#FFFFFF;" d="M1119.071,1209.08c-1.219,0-2.48-0.181-3.681-0.651c-1.531-0.599-2.86-1.302-4.145-1.982
				c-2.493-1.318-4.648-2.464-6.99-1.999l-0.123-0.632c2.566-0.496,4.813,0.688,7.414,2.063c1.27,0.671,2.583,1.366,4.079,1.951
				c4.469,1.754,9.703-0.778,10.03-1.054l0.47,0.438C1125.845,1207.537,1122.639,1209.08,1119.071,1209.08z"/>
		</g>
		<g>
			<path style="fill:#FFFFFF;" d="M1094.275,1213.271c-0.094,0-0.182-0.014-0.261-0.044c-0.216-0.082-0.548-0.336-0.339-1.122
				l0.047-0.102c0.36-0.516,2.221-3.051,3.514-2.238c0.164,0.103,0.51,0.418,0.169,1.106
				C1096.98,1211.726,1095.265,1213.271,1094.275,1213.271z M1094.284,1212.324c-0.058,0.244-0.022,0.318-0.022,0.319
				c0.167,0.048,1.099-0.385,1.981-1.293c0.627-0.646,0.68-0.985,0.66-1.033C1096.331,1209.951,1095.021,1211.287,1094.284,1212.324
				z"/>
		</g>
		<g>
			<g>
				<path style="fill:#080435;" d="M1116.291,1233.522c0.104-0.015,0.201-0.077,0.256-0.177c0.093-0.169,0.033-0.383-0.134-0.477
					c-0.099-0.055-2.27-1.561-4.596,0.431c-0.147,0.126-0.172,0.344-0.05,0.495c0.122,0.151,0.318,0.138,0.49,0.051
					c1.721-0.872,3.735-0.407,3.818-0.362C1116.143,1233.52,1116.219,1233.532,1116.291,1233.522z"/>
			</g>
		</g>
		<g>
			<path style="fill:#080435;" d="M1113.076,1237.002c-0.131,0.828,0.245,1.577,0.84,1.673c0.595,0.096,1.184-0.497,1.315-1.325
				c0.131-0.828-0.245-1.577-0.84-1.673C1113.796,1235.58,1113.207,1236.173,1113.076,1237.002z"/>
		</g>
		<g>
			<g>
				<path style="fill:#080435;" d="M1128.449,1237.932c0.079,0.021,0.169-0.006,0.243-0.081c0.125-0.127,0.157-0.346,0.071-0.489
					c-0.051-0.084-1.063-2.201-3.399-1.106c-0.147,0.069-0.241,0.265-0.207,0.445s0.177,0.233,0.329,0.208
					c1.52-0.248,2.782,0.846,2.825,0.915C1128.345,1237.881,1128.394,1237.917,1128.449,1237.932z"/>
			</g>
		</g>
		<g>
			<path style="fill:#080435;" d="M1124.087,1239.892c-0.434,0.715-0.369,1.553,0.145,1.871c0.514,0.318,1.282-0.005,1.716-0.72
				c0.434-0.715,0.369-1.553-0.146-1.87C1125.288,1238.854,1124.52,1239.177,1124.087,1239.892z"/>
		</g>
		<g>
			<g>
				<path style="fill:#020202;" d="M1114.13,1248.696c-2.093,0-5.253-0.617-7.13-3.932c-0.066-0.118-0.025-0.267,0.092-0.332
					c0.117-0.067,0.266-0.026,0.333,0.092c2.786,4.924,8.45,3.543,8.69,3.482c0.13-0.035,0.263,0.046,0.297,0.176
					s-0.045,0.263-0.176,0.297C1116.214,1248.485,1115.354,1248.696,1114.13,1248.696z"/>
			</g>
			<g>
				<path style="fill:#020202;" d="M1106.504,1245.625c-0.025,0-0.051-0.005-0.076-0.013c-0.128-0.042-0.198-0.181-0.156-0.308
					c0.201-0.61,0.741-1.171,1.604-1.667c0.114-0.067,0.287-0.046,0.356,0.066c0.07,0.111,0.066,0.242-0.044,0.315l-0.069,0.041
					c-0.941,0.541-1.272,1.057-1.384,1.396C1106.703,1245.56,1106.607,1245.625,1106.504,1245.625z"/>
			</g>
		</g>
		<g>
			
				<rect x="1135.02" y="1297.3" transform="matrix(0.9499 -0.3125 0.3125 0.9499 -350.4727 420.0941)" style="fill:#331832;" width="1.071" height="12.607"/>
		</g>
		<g>
			<path style="fill:#FFFFFF;" d="M1126.043,1251.734c-1.256,0-2.389-0.469-3.307-1.378c-2.936-2.908-2.797-9.648,0.309-15.024
				c1.912-3.309,4.594-5.491,7.175-5.837c1.536-0.204,2.926,0.254,4.013,1.331c2.935,2.909,2.796,9.649-0.309,15.025
				c-1.912,3.309-4.594,5.491-7.174,5.837C1126.511,1251.718,1126.275,1251.734,1126.043,1251.734z M1130.918,1230.173
				c-0.197,0-0.397,0.014-0.601,0.041c-2.359,0.316-4.842,2.365-6.642,5.48c-2.952,5.109-3.144,11.455-0.427,14.146
				c0.921,0.913,2.098,1.299,3.406,1.127c2.359-0.316,4.842-2.365,6.642-5.48c2.951-5.109,3.143-11.454,0.427-14.146
				C1132.945,1230.57,1131.985,1230.173,1130.918,1230.173z"/>
		</g>
		<g style="opacity:0.3;">
			<path style="fill:#FFFFFF;" d="M1105.559,1227.43c-2.515,5.348-1.82,11.854,1.553,14.532c3.372,2.678,8.145,0.514,10.66-4.833
				c2.515-5.348,1.82-11.854-1.553-14.532C1112.847,1219.919,1108.074,1222.083,1105.559,1227.43z"/>
		</g>
		<g style="opacity:0.3;">
			<path style="fill:#FFFFFF;" d="M1122.796,1235.76c-2.524,5.373-2.183,11.892,0.762,14.561c2.945,2.669,7.378,0.477,9.902-4.896
				s2.183-11.892-0.762-14.561C1129.753,1228.196,1125.319,1230.388,1122.796,1235.76z"/>
		</g>
		<g>
			<path style="fill:#FFFFFF;" d="M1110.888,1243.399c-1.318,0-2.564-0.438-3.663-1.297c-3.725-2.908-4.546-9.917-1.831-15.625l0,0
				c1.583-3.329,4.042-5.604,6.746-6.242c1.856-0.437,3.63-0.051,5.13,1.12c3.725,2.907,4.546,9.917,1.832,15.626
				c-1.584,3.329-4.043,5.604-6.747,6.242C1111.859,1243.34,1111.369,1243.399,1110.888,1243.399z M1113.599,1220.787
				c-0.424,0-0.855,0.051-1.292,0.155c-2.451,0.579-4.79,2.765-6.257,5.849l0,0c-2.577,5.417-1.85,12.029,1.622,14.741
				c1.321,1.031,2.882,1.371,4.516,0.986c2.452-0.579,4.791-2.765,6.258-5.848c2.577-5.418,1.849-12.031-1.622-14.742
				C1115.855,1221.172,1114.758,1220.787,1113.599,1220.787z"/>
		</g>
		<g>
			<path style="fill:#FFFFFF;" d="M1123.226,1238.049c-0.203,0-0.403-0.091-0.537-0.263c-0.066-0.084-1.474-1.825-4.531-1.901
				c-0.374-0.009-0.67-0.32-0.66-0.694c0.009-0.375,0.326-0.695,0.694-0.66c3.743,0.093,5.499,2.335,5.571,2.43
				c0.228,0.297,0.171,0.722-0.127,0.95C1123.515,1238.004,1123.37,1238.049,1123.226,1238.049z"/>
		</g>
	</g>
</g>
</svg>
